<?xml version="1.0" encoding="UTF-8" standalone="no"?>
<!-- Generator: Adobe Illustrator 18.1.1, SVG Export Plug-In . SVG Version: 6.00 Build 0)  -->

<svg
   xmlns:dc="http://purl.org/dc/elements/1.1/"
   xmlns:cc="http://creativecommons.org/ns#"
   xmlns:rdf="http://www.w3.org/1999/02/22-rdf-syntax-ns#"
   xmlns:svg="http://www.w3.org/2000/svg"
   xmlns="http://www.w3.org/2000/svg"
   xmlns:sodipodi="http://sodipodi.sourceforge.net/DTD/sodipodi-0.dtd"
   xmlns:inkscape="http://www.inkscape.org/namespaces/inkscape"
   version="1.1"
   id="Layer_1"
   x="0px"
   y="0px"
   viewBox="0 0 196.243 197.727"
   xml:space="preserve"
   inkscape:version="0.48.4 r9939"
   width="100%"
   height="100%"
   sodipodi:docname="Contacts.svg"><metadata
     id="metadata59"><rdf:RDF><cc:Work
         rdf:about=""><dc:format>image/svg+xml</dc:format><dc:type
           rdf:resource="http://purl.org/dc/dcmitype/StillImage" /></cc:Work></rdf:RDF></metadata><defs
     id="defs57" /><sodipodi:namedview
     pagecolor="#ffffff"
     bordercolor="#666666"
     borderopacity="1"
     objecttolerance="10"
     gridtolerance="10"
     guidetolerance="10"
     inkscape:pageopacity="0"
     inkscape:pageshadow="2"
     inkscape:window-width="1476"
     inkscape:window-height="1005"
     id="namedview55"
     showgrid="false"
     inkscape:zoom="1.5857388"
     inkscape:cx="98.059987"
     inkscape:cy="54.586379"
     inkscape:window-x="75"
     inkscape:window-y="34"
     inkscape:window-maximized="0"
     inkscape:current-layer="Layer_1"
     fit-margin-top="0"
     fit-margin-left="0"
     fit-margin-right="0"
     fit-margin-bottom="0" /><g
     id="g3"
     transform="translate(-199.58001,-322.396)"><linearGradient
       id="SVGID_1_"
       gradientUnits="userSpaceOnUse"
       x1="297.7009"
       y1="325.1676"
       x2="297.7009"
       y2="517.5647"><stop
         offset="0"
         style="stop-color:#FFFFFF;stop-opacity:0.7"
         id="stop6" /><stop
         offset="0.9987"
         style="stop-color:#D8D9D8;stop-opacity:0.7"
         id="stop8" /></linearGradient><path
       style="fill:url(#SVGID_1_);fill-rule:evenodd"
       d="m 210.25,519.623 c -5.608,0 -10.17,-4.562 -10.17,-10.171 V 333.066 c 0,-5.608 4.562,-10.17 10.17,-10.17 h 174.902 c 5.607,0 10.17,4.562 10.17,10.17 v 176.386 c 0,5.608 -4.562,10.171 -10.17,10.171 H 210.25 z"
       id="path10"
       inkscape:connector-curvature="0" /><path
       style="fill:#d8d8d7"
       d="m 385.152,323.396 c 5.332,0 9.67,4.338 9.67,9.67 v 176.387 c 0,5.332 -4.338,9.67 -9.67,9.67 H 210.25 c -5.332,0 -9.67,-4.338 -9.67,-9.67 V 333.066 c 0,-5.332 4.338,-9.67 9.67,-9.67 h 174.902 m 0,-1 H 210.25 c -5.893,0 -10.67,4.777 -10.67,10.67 v 176.387 c 0,5.893 4.777,10.67 10.67,10.67 h 174.903 c 5.893,0 10.67,-4.777 10.67,-10.67 V 333.066 c 0,-5.893 -4.778,-10.67 -10.671,-10.67 l 0,0 z"
       id="path12"
       inkscape:connector-curvature="0" /></g><g
     id="g14"
     transform="translate(-199.58001,-322.396)"><linearGradient
       id="SVGID_2_"
       gradientUnits="userSpaceOnUse"
       x1="297.23581"
       y1="364.1608"
       x2="297.23581"
       y2="475.73239"><stop
         offset="0.0049"
         style="stop-color:#F48347"
         id="stop17" /><stop
         offset="1"
         style="stop-color:#E4773B"
         id="stop19" /></linearGradient><path
       style="fill:url(#SVGID_2_);fill-rule:evenodd"
       d="m 344.71,476.058 c -0.364,0 -0.589,-0.024 -0.603,-0.026 l -95.657,-0.003 c -3.342,0 -6.062,-2.719 -6.062,-6.062 V 369.656 c 0,-3.342 2.719,-6.062 6.062,-6.062 h 90.311 c 3.343,0 6.062,2.719 6.062,6.062 v 90.311 c 0,3.343 -2.719,6.062 -6.062,6.062 l -89.272,0.153 -0.402,5.875 0.537,-0.002 c 0.718,-0.002 71.989,-0.204 91.555,-0.204 4.732,0 7.132,-2.618 7.132,-7.782 0,-19.79 -0.299,-85.429 -0.329,-92.176 1.185,0.195 3.999,1.104 3.999,5.334 0,0.901 0.076,90.378 0.104,90.752 l -0.012,-0.107 c -0.002,7.388 -5.15,8.186 -7.363,8.186 z"
       id="path21"
       inkscape:connector-curvature="0" /><path
       style="fill:#cf6a38"
       d="m 338.761,364.095 c 3.067,0 5.561,2.495 5.561,5.561 v 90.311 c 0,3.067 -2.495,5.561 -5.563,5.561 l -88.806,0.152 -0.932,0.002 -0.064,0.93 -0.333,4.874 -0.073,1.071 1.074,-0.003 c 0.718,-0.002 71.989,-0.204 91.553,-0.204 3.482,0 7.632,-1.437 7.632,-8.282 0,-19.292 -0.284,-82.148 -0.327,-91.557 1.203,0.355 2.997,1.434 2.997,4.715 0,0.879 0.062,85.883 0.11,90.645 h -0.018 c 0,2.311 -0.669,7.685 -6.862,7.685 -0.338,0 -0.544,-0.022 -0.544,-0.022 l 0,0 -0.058,-0.007 h -0.058 -95.6 c -3.067,0 -5.561,-2.495 -5.561,-5.561 v -100.31 c 0,-3.067 2.495,-5.561 5.561,-5.561 h 90.311 m 0,-1 H 248.45 c -3.624,0 -6.561,2.938 -6.561,6.561 v 100.311 c 0,3.624 2.938,6.561 6.561,6.561 h 95.6 c 0,0 0.248,0.029 0.66,0.029 2.001,0 7.862,-0.683 7.862,-8.685 -0.002,-0.008 -0.092,-84.82 -0.092,-90.645 0,-5.825 -5.002,-5.888 -5.002,-5.888 0,0 0.332,71.724 0.332,92.73 0,5.221 -2.548,7.282 -6.632,7.282 -19.792,0 -91.556,0.204 -91.556,0.204 l 0.333,-4.874 88.806,-0.152 c 3.624,0 6.561,-2.938 6.561,-6.561 v -90.311 c 0,-3.624 -2.937,-6.562 -6.561,-6.562 l 0,0 z"
       id="path23"
       inkscape:connector-curvature="0" /></g><path
     style="fill:#b27b2e;fill-rule:evenodd"
     d="m 147.89799,48.943 -2.156,-1.683 c 0,-3.624 -2.938,-6.561 -6.562,-6.561 l -90.309999,0 c -3.624,0 -6.561,2.938 -6.561,6.561 l 0,1.5 c 0,-3.624 2.938,-6.561 6.561,-6.561 l 90.309999,0 c 3.624,0 6.562,2.938 6.562,6.561 l 2.156,1.683"
     id="path25"
     inkscape:connector-curvature="0"
     sodipodi:nodetypes="ccssscsscc" /><g
     id="g27"
     transform="translate(-199.58001,-322.396)"><path
       style="fill:#e1dfe2;fill-rule:evenodd"
       d="m 344.05,476.528 -95.6,0 c -3.624,0 -6.561,-2.938 -6.561,-6.562 l 0,1.663 c 0,3.624 2.938,6.255 6.561,6.255 l 95.6,0 c 0,0 8.521,1.299 8.521,-8.35 0.0282,-3.61847 0.67639,7.26515 -8.521,6.994 z"
       id="path29"
       inkscape:connector-curvature="0"
       sodipodi:nodetypes="cscssccc" /></g><path
     style="fill:#bf602e;fill-rule:evenodd"
     d="m 126.68499,130.366 v -1.605 c 0,0 -16.147,-13.713 -24.628,-13.713 v -8.251 c 0,0 13.161,-2.772 13.161,-15.726 0,-8.241 3.257,-31.365 -20.096999,-31.365 -0.624,0 -0.624,0 -1.247,0 -23.354,0 -20.097,23.123 -20.097,31.365 0,12.675 13.161,15.726 13.161,15.726 v 8.251 c -8.332,0 -24.628,13.713 -24.628,13.713 v 1.605 h 64.374999 z"
     id="path31"
     inkscape:connector-curvature="0" /><g
     id="g33"
     transform="translate(-199.58001,-322.396)"><linearGradient
       id="SVGID_3_"
       gradientUnits="userSpaceOnUse"
       x1="298.7244"
       y1="371.77979"
       x2="298.7244"
       y2="472.5517"><stop
         offset="0"
         style="stop-color:#F9F3D9"
         id="stop36" /><stop
         offset="1"
         style="stop-color:#EAE3CA"
         id="stop38" /></linearGradient><path
       style="fill:url(#SVGID_3_);fill-rule:evenodd"
       d="m 250.188,466.931 88.572,-0.152 c 3.756,0 6.812,-3.056 6.812,-6.812 v -88.86 l 1.66,1.191 c 0.016,3.412 0.327,71.541 0.327,91.771 0,4.732 -2.088,7.032 -6.382,7.032 -18.957,0 -86.452,0.189 -91.289,0.203 l 0.3,-4.373 z"
       id="path40"
       inkscape:connector-curvature="0" /><path
       style="fill:#fffcf3"
       d="m 345.822,371.593 1.161,0.833 c 0.039,8.466 0.327,72.223 0.327,91.643 0,4.563 -2.006,6.782 -6.132,6.782 -18.664,0 -84.381,0.183 -91.02,0.202 l 0.265,-3.873 88.339,-0.151 c 3.894,0 7.061,-3.168 7.061,-7.061 v -88.375 m -0.501,-0.974 v 89.348 c 0,3.624 -2.938,6.561 -6.561,6.561 l -88.806,0.152 -0.333,4.874 c 0,0 71.764,-0.204 91.556,-0.204 4.084,0 6.632,-2.061 6.632,-7.282 0,-19.678 -0.291,-83.869 -0.328,-91.9 l -2.16,-1.549 0,0 z"
       id="path42"
       inkscape:connector-curvature="0" /></g><g
     id="g44"
     transform="translate(-199.58001,-322.396)"><linearGradient
       id="SVGID_4_"
       gradientUnits="userSpaceOnUse"
       x1="294.0769"
       y1="380.8504"
       x2="294.0769"
       y2="450.2294"><stop
         offset="0"
         style="stop-color:#F9F3D9"
         id="stop47" /><stop
         offset="1"
         style="stop-color:#EAE3CA"
         id="stop49" /></linearGradient><path
       style="fill:url(#SVGID_4_);fill-rule:evenodd"
       d="m 262.494,450.906 c 2.504,-2.468 15.465,-14.817 24.024,-14.817 h 0.25 v -8.699 l -0.193,-0.045 c -0.13,-0.03 -12.968,-3.158 -12.968,-15.483 0,-0.8 -0.031,-1.741 -0.064,-2.787 -0.207,-6.352 -0.554,-16.984 5.473,-23.21 3.287,-3.396 8.145,-5.118 14.438,-5.118 h 1.247 c 6.293,0 11.152,1.722 14.439,5.118 6.026,6.226 5.68,16.858 5.473,23.21 -0.034,1.046 -0.064,1.986 -0.064,2.787 0,12.606 -12.833,15.455 -12.963,15.481 l -0.198,0.042 v 8.704 h 0.25 c 8.56,0 21.521,12.35 24.023,14.817 h -63.167 z"
       id="path51"
       inkscape:connector-curvature="0" /><path
       style="fill:#fffcf3"
       d="m 294.701,380.997 c 6.223,0 11.02,1.696 14.259,5.042 5.953,6.15 5.609,16.716 5.403,23.028 -0.035,1.067 -0.065,1.988 -0.065,2.795 0,12.388 -12.243,15.126 -12.764,15.237 l -0.397,0.084 v 0.405 8.251 0.5 h 0.5 c 8.051,0 20.11,11.121 23.41,14.318 h -61.94 c 3.3,-3.197 15.36,-14.318 23.41,-14.318 h 0.5 v -0.5 -8.251 l 0,-0.397 -0.386,-0.09 c -0.522,-0.122 -12.774,-3.118 -12.774,-15.239 0,-0.806 -0.03,-1.728 -0.065,-2.795 -0.206,-6.313 -0.55,-16.878 5.403,-23.029 3.238,-3.345 8.036,-5.042 14.259,-5.042 h 1.247 m 0,-0.499 c -0.624,0 -0.624,0 -1.247,0 -23.354,0 -20.097,23.123 -20.097,31.365 0,12.675 13.161,15.726 13.161,15.726 v 8.251 c -9.677,0 -24.628,15.318 -24.628,15.318 h 64.376 c 0,0 -14.952,-15.318 -24.628,-15.318 v -8.251 c 0,0 13.161,-2.772 13.161,-15.726 -10e-4,-8.242 3.256,-31.365 -20.098,-31.365 l 0,0 z"
       id="path53"
       inkscape:connector-curvature="0" /></g></svg>