<?xml version="1.0" encoding="UTF-8" standalone="no"?>
<!-- Generator: Adobe Illustrator 18.1.1, SVG Export Plug-In . SVG Version: 6.00 Build 0)  -->

<svg
   xmlns:dc="http://purl.org/dc/elements/1.1/"
   xmlns:cc="http://creativecommons.org/ns#"
   xmlns:rdf="http://www.w3.org/1999/02/22-rdf-syntax-ns#"
   xmlns:svg="http://www.w3.org/2000/svg"
   xmlns="http://www.w3.org/2000/svg"
   xmlns:sodipodi="http://sodipodi.sourceforge.net/DTD/sodipodi-0.dtd"
   xmlns:inkscape="http://www.inkscape.org/namespaces/inkscape"
   version="1.1"
   id="Layer_1"
   x="0px"
   y="0px"
   viewBox="0 0 195.689 195.688"
   xml:space="preserve"
   inkscape:version="0.48.4 r9939"
   width="100%"
   height="100%"
   sodipodi:docname="Message.svg"><metadata
     id="metadata113"><rdf:RDF><cc:Work
         rdf:about=""><dc:format>image/svg+xml</dc:format><dc:type
           rdf:resource="http://purl.org/dc/dcmitype/StillImage" /></cc:Work></rdf:RDF></metadata><defs
     id="defs111" /><sodipodi:namedview
     pagecolor="#ffffff"
     bordercolor="#666666"
     borderopacity="1"
     objecttolerance="10"
     gridtolerance="10"
     guidetolerance="10"
     inkscape:pageopacity="0"
     inkscape:pageshadow="2"
     inkscape:window-width="1365"
     inkscape:window-height="1008"
     id="namedview109"
     showgrid="false"
     inkscape:zoom="6.342955"
     inkscape:cx="93.708537"
     inkscape:cy="72.329172"
     inkscape:window-x="325"
     inkscape:window-y="44"
     inkscape:window-maximized="0"
     inkscape:current-layer="Layer_1"
     fit-margin-top="0"
     fit-margin-left="0"
     fit-margin-right="0"
     fit-margin-bottom="0" /><g
     id="g3"
     transform="translate(-199.56101,-322.811)"><linearGradient
       id="SVGID_1_"
       gradientUnits="userSpaceOnUse"
       x1="297.405"
       y1="323.75299"
       x2="297.405"
       y2="517.51898"><stop
         offset="0"
         style="stop-color:#FFFFFF;stop-opacity:0.7"
         id="stop6" /><stop
         offset="0.9987"
         style="stop-color:#D8D9D8;stop-opacity:0.7"
         id="stop8" /></linearGradient><path
       style="fill:url(#SVGID_1_);fill-rule:evenodd"
       d="m 209.185,517.998 c -5.031,0 -9.124,-4.093 -9.124,-9.123 v -176.44 c 0,-5.031 4.093,-9.124 9.124,-9.124 h 176.44 c 5.031,0 9.124,4.093 9.124,9.124 v 176.44 c 0,5.03 -4.093,9.123 -9.124,9.123 h -176.44 z"
       id="path10"
       inkscape:connector-curvature="0" /><path
       style="fill:#d8d8d7"
       d="m 385.625,323.811 c 4.755,0 8.624,3.868 8.624,8.624 v 176.441 c 0,4.755 -3.868,8.623 -8.624,8.623 h -176.44 c -4.755,0 -8.624,-3.868 -8.624,-8.623 V 332.434 c 0,-4.755 3.868,-8.624 8.624,-8.624 h 176.44 m 0,-0.999 h -176.44 c -5.315,0 -9.624,4.309 -9.624,9.624 v 176.441 c 0,5.315 4.309,9.623 9.624,9.623 h 176.441 c 5.315,0 9.624,-4.309 9.624,-9.623 V 332.434 c -10e-4,-5.314 -4.31,-9.623 -9.625,-9.623 l 0,0 z"
       id="path12"
       inkscape:connector-curvature="0" /></g><g
     id="g14"
     transform="translate(-199.56101,-322.811)"><linearGradient
       id="SVGID_2_"
       gradientUnits="userSpaceOnUse"
       x1="296.19089"
       y1="369.73291"
       x2="296.19089"
       y2="474.21371"><stop
         offset="0"
         style="stop-color:#329AC8"
         id="stop17" /><stop
         offset="1"
         style="stop-color:#2884BC"
         id="stop19" /></linearGradient><path
       style="fill:url(#SVGID_2_);fill-rule:evenodd"
       d="m 307.517,451.043 -0.539,-0.029 h -62.729 c -5.151,0 -9.342,-4.19 -9.342,-9.342 v -62.597 c 0,-5.151 4.191,-9.342 9.342,-9.342 h 103.884 c 5.151,0 9.342,4.191 9.342,9.342 v 62.597 c 0,5.151 -4.19,9.342 -9.342,9.342 h -13.09 l -0.145,0.091 -27.908,25.471 0.527,-25.533 z"
       id="path21"
       inkscape:connector-curvature="0" /><path
       style="fill:#327eab"
       d="m 348.133,370.233 c 4.876,0 8.842,3.967 8.842,8.842 v 62.597 c 0,4.875 -3.966,8.842 -8.842,8.842 h -12.938 l -0.407,0.007 -0.286,0.261 -26.987,24.637 0.491,-23.859 -10e-4,-0.44 -0.294,-0.299 -0.314,-0.308 h -0.42 -62.728 c -4.875,0 -8.842,-3.966 -8.842,-8.842 v -62.597 c 0,-4.875 3.966,-8.842 8.842,-8.842 h 103.884 m 0,-0.999 H 244.249 c -5.436,0 -9.842,4.406 -9.842,9.842 v 62.597 c 0,5.436 4.406,9.842 9.842,9.842 h 62.728 c 0.016,0 0.029,0.013 0.028,0.029 l -0.538,26.121 c 0,0.017 0.014,0.029 0.029,0.029 0.007,0 0.013,-0.002 0.019,-0.008 l 28.66,-26.165 c 0.005,-0.005 0.012,-0.007 0.019,-0.007 h 12.938 c 5.436,0 9.842,-4.406 9.842,-9.842 v -62.597 c 0.001,-5.435 -4.406,-9.841 -9.841,-9.841 l 0,0 z"
       id="path23"
       inkscape:connector-curvature="0" /></g><g
     id="g25"
     transform="translate(-199.56101,-322.811)"><g
       id="g27"><polygon
         style="fill:#266583;fill-rule:evenodd"
         points="306.996,452.599 306.984,452.599 306.466,477.73 306.479,477.719 "
         id="polygon29" /></g><g
       id="g31"><path
         style="fill:#266583;fill-rule:evenodd"
         d="m 348.133,369.233 -103.884,0 c -5.436,0 -9.842,4.406 -9.842,9.842 l 0,0 c 0,0.035 0.051,0.038 0.054,0.003 0.527,-4.888 4.687,-8.404 9.749,-8.404 l 103.912,0 c 8.6778,-0.3713 9.36903,6.45678 9.842,11.47667 0.36195,-7.49834 0.68242,-13.28604 -9.831,-12.91767 z"
         id="path33"
         inkscape:connector-curvature="0"
         sodipodi:nodetypes="cscccsccc" /></g></g><g
     id="g35"
     transform="translate(-199.56101,-322.811)"><g
       id="g37"><path
         style="fill:#e1dfe2;fill-rule:evenodd"
         d="m 348.161,451.514 -12.967,0 c -0.007,0 -0.014,0.003 -0.019,0.007 l -28.687,26.19 -0.021,1.024 28.709,-26.209 c 0.005,-0.005 0.012,-0.007 0.019,-0.007 l 12.938,0 c 6.67403,-0.41947 9.842,-5.49 9.842,-10.819 0,5.42 -4.394,9.814 -9.814,9.814 z"
         id="path39"
         inkscape:connector-curvature="0"
         sodipodi:nodetypes="ssccccsccs" /></g><g
       id="g41"><path
         style="fill:#e1dfe2;fill-rule:evenodd"
         d="M 307.006,451.514 H 244.22 c -5.42,0 -9.813,-4.394 -9.813,-9.813 v 0.977 c 0,5.436 4.406,9.842 9.842,9.842 h 62.737 l 0.02,-1.006 z"
         id="path43"
         inkscape:connector-curvature="0" /></g></g><g
     id="g45"
     transform="translate(-199.56101,-322.811)"><g
       id="g47"><path
         style="fill:#2f7496"
         d="m 263.841,407.883 c 0.411,-1.172 1.001,-2.194 1.771,-3.066 0.77,-0.873 1.715,-1.558 2.836,-2.054 1.121,-0.496 2.383,-0.744 3.786,-0.744 1.42,0 2.686,0.248 3.799,0.744 1.112,0.496 2.053,1.181 2.823,2.054 0.77,0.872 1.36,1.895 1.771,3.066 0.411,1.173 0.616,2.443 0.616,3.812 0,1.334 -0.206,2.579 -0.616,3.734 -0.41,1.155 -1.001,2.16 -1.771,3.016 -0.77,0.856 -1.711,1.527 -2.823,2.015 -1.113,0.488 -2.379,0.732 -3.799,0.732 -1.403,0 -2.666,-0.244 -3.786,-0.732 -1.121,-0.487 -2.066,-1.158 -2.836,-2.015 -0.77,-0.855 -1.36,-1.86 -1.771,-3.016 -0.411,-1.156 -0.616,-2.4 -0.616,-3.734 0,-1.369 0.206,-2.639 0.616,-3.812 z m 3.684,6.057 c 0.18,0.728 0.466,1.383 0.86,1.964 0.393,0.582 0.907,1.049 1.54,1.399 0.633,0.351 1.403,0.525 2.31,0.525 0.907,0 1.677,-0.175 2.31,-0.525 0.633,-0.351 1.146,-0.817 1.54,-1.399 0.393,-0.581 0.68,-1.236 0.86,-1.964 0.18,-0.727 0.27,-1.476 0.27,-2.245 0,-0.805 -0.09,-1.583 -0.27,-2.336 -0.18,-0.753 -0.467,-1.425 -0.86,-2.015 -0.394,-0.591 -0.907,-1.062 -1.54,-1.412 -0.633,-0.351 -1.403,-0.526 -2.31,-0.526 -0.907,0 -1.677,0.176 -2.31,0.526 -0.633,0.351 -1.147,0.821 -1.54,1.412 -0.394,0.59 -0.68,1.262 -0.86,2.015 -0.18,0.753 -0.27,1.531 -0.27,2.336 0,0.77 0.09,1.519 0.27,2.245 z"
         id="path49"
         inkscape:connector-curvature="0" /></g><g
       id="g51"><path
         style="fill:#2f7496"
         d="m 289.642,402.455 c 0.012,0 0.023,0.008 0.027,0.019 l 4.28,12.583 H 294 l 4.049,-12.583 c 0.004,-0.012 0.015,-0.02 0.027,-0.02 h 5.623 c 0.016,0 0.028,0.013 0.028,0.028 v 18.269 c 0,0.016 -0.013,0.028 -0.028,0.028 h -3.716 c -0.016,0 -0.028,-0.013 -0.028,-0.028 v -12.96 h -0.051 l -4.485,12.969 c -0.004,0.011 -0.015,0.019 -0.027,0.019 h -3.065 c -0.012,0 -0.023,-0.008 -0.027,-0.019 l -4.485,-12.84 h -0.051 v 12.831 c 0,0.016 -0.013,0.028 -0.028,0.028 h -3.717 c -0.016,0 -0.028,-0.013 -0.028,-0.028 v -18.269 c 0,-0.016 0.013,-0.028 0.028,-0.028 h 5.623 z"
         id="path53"
         inkscape:connector-curvature="0" /></g><g
       id="g55"><path
         style="fill:#2f7496"
         d="m 318.128,420.64 c -0.873,0.368 -1.754,0.553 -2.644,0.553 -1.403,0 -2.666,-0.244 -3.786,-0.732 -1.121,-0.487 -2.066,-1.158 -2.836,-2.015 -0.77,-0.855 -1.36,-1.86 -1.771,-3.016 -0.411,-1.156 -0.616,-2.4 -0.616,-3.734 0,-1.369 0.205,-2.64 0.616,-3.812 0.411,-1.172 1.001,-2.194 1.771,-3.066 0.77,-0.873 1.715,-1.558 2.836,-2.054 1.121,-0.496 2.383,-0.744 3.786,-0.744 0.941,0 1.852,0.141 2.733,0.423 0.881,0.282 1.677,0.698 2.387,1.245 0.71,0.548 1.296,1.224 1.758,2.028 0.457,0.795 0.738,1.709 0.843,2.738 0.002,0.017 -0.012,0.033 -0.029,0.033 h -3.796 c -0.013,0 -0.024,-0.009 -0.027,-0.022 -0.241,-1.016 -0.701,-1.779 -1.381,-2.288 -0.685,-0.514 -1.515,-0.771 -2.49,-0.771 -0.907,0 -1.677,0.176 -2.31,0.526 -0.633,0.351 -1.147,0.821 -1.54,1.412 -0.394,0.59 -0.68,1.262 -0.86,2.015 -0.18,0.753 -0.27,1.531 -0.27,2.336 0,0.77 0.09,1.519 0.27,2.245 0.18,0.728 0.466,1.383 0.86,1.964 0.393,0.582 0.907,1.049 1.54,1.399 0.633,0.351 1.403,0.525 2.31,0.525 1.334,0 2.365,-0.337 3.093,-1.014 0.721,-0.67 1.143,-1.638 1.267,-2.905 0.002,-0.017 -0.012,-0.034 -0.029,-0.034 h -3.995 c -0.016,0 -0.028,-0.013 -0.028,-0.028 v -2.946 c 0,-0.016 0.013,-0.028 0.028,-0.028 h 7.644 c 0.016,0 0.028,0.013 0.028,0.028 v 9.85 c 0,0.016 -0.013,0.028 -0.028,0.028 h -2.515 c -0.014,0 -0.025,-0.01 -0.028,-0.023 l -0.406,-2.056 c -0.716,0.926 -1.512,1.572 -2.385,1.94 z"
         id="path57"
         inkscape:connector-curvature="0" /></g><g
       id="g59"><path
         style="fill:#2f7496"
         d="m 330.577,416.857 v 3.896 c 0,0.016 -0.013,0.028 -0.028,0.028 h -3.973 c -0.016,0 -0.028,-0.013 -0.028,-0.028 v -3.896 c 0,-0.016 0.013,-0.028 0.028,-0.028 h 3.973 c 0.015,-0.001 0.028,0.012 0.028,0.028 z m -1.155,-1.569 h -1.773 c -0.014,0 -0.026,-0.011 -0.028,-0.025 l -0.972,-7.879 c 0,-0.001 0,-0.002 0,-0.004 v -4.898 c 0,-0.016 0.013,-0.028 0.028,-0.028 h 3.742 c 0.016,0 0.028,0.013 0.028,0.028 v 4.897 c 0,10e-4 0,0.002 0,0.004 l -0.998,7.879 c 0,0.015 -0.013,0.026 -0.027,0.026 z"
         id="path61"
         inkscape:connector-curvature="0" /></g></g><g
     id="g63"
     transform="translate(-199.56101,-322.811)"><g
       id="g65"><linearGradient
         id="SVGID_3_"
         gradientUnits="userSpaceOnUse"
         x1="272.23489"
         y1="401.85071"
         x2="272.23489"
         y2="419.34131"><stop
           offset="0"
           style="stop-color:#E2EEF4"
           id="stop68" /><stop
           offset="1"
           style="stop-color:#CDE5F3"
           id="stop70" /></linearGradient><path
         style="fill:url(#SVGID_3_)"
         d="m 272.235,419.826 c -1.362,0 -2.603,-0.239 -3.686,-0.711 -1.084,-0.471 -2.009,-1.128 -2.75,-1.953 -0.745,-0.828 -1.324,-1.814 -1.722,-2.932 -0.399,-1.123 -0.601,-2.351 -0.601,-3.651 0,-1.334 0.203,-2.589 0.602,-3.73 0.398,-1.136 0.978,-2.14 1.723,-2.983 0.743,-0.842 1.668,-1.512 2.75,-1.991 1.083,-0.479 2.323,-0.723 3.685,-0.723 1.378,0 2.622,0.243 3.697,0.723 1.074,0.479 1.995,1.149 2.737,1.991 0.745,0.843 1.324,1.847 1.723,2.983 0.399,1.141 0.602,2.396 0.602,3.73 0,1.299 -0.203,2.527 -0.602,3.651 -0.398,1.118 -0.977,2.104 -1.722,2.932 -0.741,0.825 -1.662,1.482 -2.738,1.953 -1.076,0.471 -2.32,0.711 -3.698,0.711 z m 0,-15.786 c -0.945,0 -1.763,0.188 -2.431,0.558 -0.666,0.369 -1.214,0.871 -1.627,1.492 -0.408,0.61 -0.709,1.315 -0.895,2.095 -0.184,0.769 -0.276,1.574 -0.276,2.394 0,0.787 0.093,1.562 0.277,2.305 0.187,0.755 0.488,1.443 0.896,2.044 0.414,0.612 0.96,1.11 1.626,1.478 0.667,0.369 1.485,0.557 2.431,0.557 0.946,0 1.764,-0.188 2.431,-0.557 0.664,-0.368 1.211,-0.865 1.626,-1.478 0.408,-0.604 0.709,-1.292 0.896,-2.044 0.184,-0.743 0.277,-1.519 0.277,-2.305 0,-0.82 -0.093,-1.625 -0.276,-2.394 -0.186,-0.777 -0.487,-1.482 -0.895,-2.095 -0.415,-0.622 -0.962,-1.124 -1.627,-1.492 -0.67,-0.371 -1.488,-0.558 -2.433,-0.558 z"
         id="path72"
         inkscape:connector-curvature="0" /><path
         style="fill:#f5fbfd"
         d="m 272.235,401.402 c 1.343,0 2.552,0.236 3.595,0.701 1.041,0.465 1.934,1.113 2.652,1.928 0.723,0.819 1.286,1.795 1.674,2.901 0.39,1.115 0.588,2.342 0.588,3.647 0,1.27 -0.198,2.47 -0.587,3.567 -0.387,1.087 -0.949,2.046 -1.672,2.849 -0.717,0.798 -1.61,1.434 -2.652,1.891 -1.044,0.458 -2.254,0.69 -3.598,0.69 -1.328,0 -2.534,-0.232 -3.587,-0.691 -1.05,-0.457 -1.947,-1.093 -2.664,-1.891 -0.723,-0.803 -1.285,-1.761 -1.672,-2.849 -0.389,-1.096 -0.587,-2.296 -0.587,-3.567 0,-1.306 0.198,-2.534 0.588,-3.647 0.387,-1.106 0.951,-2.082 1.674,-2.901 0.718,-0.815 1.615,-1.463 2.664,-1.927 1.051,-0.465 2.257,-0.701 3.584,-0.701 m 0,15.811 c 0.989,0 1.848,-0.198 2.552,-0.588 0.699,-0.387 1.275,-0.911 1.712,-1.557 0.425,-0.628 0.738,-1.343 0.931,-2.124 0.189,-0.762 0.284,-1.558 0.284,-2.365 0,-0.84 -0.095,-1.665 -0.283,-2.452 -0.192,-0.806 -0.505,-1.538 -0.93,-2.176 -0.437,-0.655 -1.014,-1.184 -1.714,-1.572 -0.706,-0.391 -1.565,-0.589 -2.552,-0.589 -0.988,0 -1.847,0.198 -2.552,0.589 -0.702,0.388 -1.278,0.917 -1.714,1.572 -0.424,0.635 -0.737,1.367 -0.93,2.176 -0.188,0.787 -0.283,1.612 -0.283,2.452 0,0.807 0.096,1.603 0.284,2.365 0.194,0.784 0.507,1.499 0.931,2.124 0.436,0.646 1.012,1.169 1.712,1.557 0.704,0.39 1.562,0.588 2.552,0.588 m 0,-16.311 c -1.403,0 -2.666,0.248 -3.786,0.744 -1.121,0.496 -2.066,1.181 -2.836,2.054 -0.77,0.872 -1.36,1.895 -1.771,3.066 -0.411,1.173 -0.616,2.443 -0.616,3.812 0,1.334 0.205,2.579 0.616,3.734 0.411,1.155 1.001,2.16 1.771,3.016 0.77,0.856 1.715,1.527 2.836,2.015 1.121,0.488 2.383,0.732 3.786,0.732 1.42,0 2.686,-0.244 3.799,-0.732 1.112,-0.487 2.053,-1.158 2.823,-2.015 0.77,-0.855 1.36,-1.86 1.771,-3.016 0.411,-1.156 0.616,-2.4 0.616,-3.734 0,-1.369 -0.206,-2.64 -0.616,-3.812 -0.411,-1.172 -1.001,-2.194 -1.771,-3.066 -0.77,-0.873 -1.711,-1.558 -2.823,-2.054 -1.113,-0.496 -2.379,-0.744 -3.799,-0.744 l 0,0 z m 0,15.811 c -0.907,0 -1.677,-0.175 -2.31,-0.525 -0.633,-0.351 -1.147,-0.817 -1.54,-1.399 -0.394,-0.581 -0.68,-1.236 -0.86,-1.964 -0.18,-0.727 -0.27,-1.476 -0.27,-2.245 0,-0.805 0.09,-1.583 0.27,-2.336 0.18,-0.753 0.466,-1.425 0.86,-2.015 0.393,-0.591 0.907,-1.062 1.54,-1.412 0.633,-0.351 1.403,-0.526 2.31,-0.526 0.907,0 1.677,0.176 2.31,0.526 0.633,0.351 1.146,0.821 1.54,1.412 0.393,0.59 0.68,1.262 0.86,2.015 0.18,0.753 0.27,1.531 0.27,2.336 0,0.77 -0.09,1.519 -0.27,2.245 -0.18,0.728 -0.467,1.383 -0.86,1.964 -0.394,0.582 -0.907,1.049 -1.54,1.399 -0.633,0.35 -1.403,0.525 -2.31,0.525 l 0,0 z"
         id="path74"
         inkscape:connector-curvature="0" /></g><g
       id="g76"><linearGradient
         id="SVGID_4_"
         gradientUnits="userSpaceOnUse"
         x1="293.85941"
         y1="401.86169"
         x2="293.85941"
         y2="419.33069"><stop
           offset="0"
           style="stop-color:#E2EEF4"
           id="stop79" /><stop
           offset="1"
           style="stop-color:#CDE5F3"
           id="stop81" /></linearGradient><polygon
         style="fill:url(#SVGID_4_)"
         points="299.668,406.595 295.234,419.415 292.484,419.415 287.993,406.555 287.565,406.555 287.514,406.805 287.514,419.415 284.24,419.415 284.24,401.588 289.483,401.588 293.77,414.191 294.131,414.191 294.238,414.018 298.238,401.588 303.479,401.588 303.479,419.415 300.205,419.415 300.205,406.426 299.777,406.426 "
         id="polygon83" /><path
         style="fill:#f5fbfd"
         d="m 303.228,401.839 v 17.326 h -2.773 v -12.488 -0.5 h -0.5 -0.051 -0.356 l -0.116,0.337 -4.375,12.652 h -2.395 l -4.375,-12.524 -0.117,-0.335 h -0.355 -0.051 -0.5 v 0.5 12.359 h -2.773 V 401.84 h 4.814 l 4.171,12.264 0.115,0.339 h 0.358 0.051 0.364 l 0.112,-0.347 3.944,-12.256 h 4.808 m 0.472,-0.501 h -5.623 c -0.012,0 -0.023,0.008 -0.027,0.02 L 294,413.941 h -0.051 l -4.28,-12.583 c -0.004,-0.012 -0.015,-0.019 -0.027,-0.019 h -5.624 c -0.016,0 -0.028,0.013 -0.028,0.028 v 18.269 c 0,0.016 0.013,0.028 0.028,0.028 h 3.717 c 0.016,0 0.028,-0.013 0.028,-0.028 v -12.831 h 0.051 l 4.485,12.84 c 0.004,0.011 0.015,0.019 0.027,0.019 h 3.065 c 0.012,0 0.023,-0.008 0.027,-0.019 l 4.485,-12.969 h 0.051 v 12.96 c 0,0.016 0.013,0.028 0.028,0.028 h 3.716 c 0.016,0 0.028,-0.013 0.028,-0.028 v -18.269 c 0.002,-0.016 -0.01,-0.028 -0.026,-0.028 l 0,0 z"
         id="path85"
         inkscape:connector-curvature="0" /></g><g
       id="g87"><linearGradient
         id="SVGID_5_"
         gradientUnits="userSpaceOnUse"
         x1="314.98441"
         y1="401.85071"
         x2="314.98441"
         y2="419.34131"><stop
           offset="0"
           style="stop-color:#E2EEF4"
           id="stop90" /><stop
           offset="1"
           style="stop-color:#CDE5F3"
           id="stop92" /></linearGradient><path
         style="fill:url(#SVGID_5_)"
         d="m 315.484,419.826 c -1.362,0 -2.603,-0.239 -3.687,-0.711 -1.084,-0.471 -2.009,-1.128 -2.75,-1.953 -0.744,-0.826 -1.323,-1.813 -1.722,-2.933 -0.398,-1.123 -0.601,-2.351 -0.601,-3.65 0,-1.334 0.202,-2.589 0.602,-3.73 0.398,-1.137 0.979,-2.141 1.723,-2.983 0.742,-0.842 1.667,-1.512 2.75,-1.991 1.083,-0.479 2.323,-0.723 3.685,-0.723 0.912,0 1.806,0.138 2.657,0.411 0.847,0.271 1.624,0.676 2.312,1.205 0.681,0.525 1.25,1.183 1.693,1.955 0.401,0.698 0.664,1.503 0.783,2.397 h -3.374 c -0.265,-0.985 -0.746,-1.746 -1.431,-2.26 -0.726,-0.544 -1.614,-0.82 -2.641,-0.82 -0.945,0 -1.763,0.188 -2.431,0.558 -0.667,0.369 -1.214,0.871 -1.627,1.493 -0.408,0.609 -0.709,1.314 -0.896,2.095 -0.184,0.769 -0.276,1.574 -0.276,2.394 0,0.787 0.093,1.562 0.276,2.305 0.188,0.755 0.488,1.443 0.896,2.044 0.413,0.612 0.96,1.109 1.626,1.478 0.667,0.369 1.484,0.557 2.431,0.557 1.395,0 2.492,-0.364 3.263,-1.081 0.764,-0.71 1.217,-1.741 1.347,-3.063 l 0.011,-0.109 -0.081,-0.106 -0.074,-0.083 -0.134,-0.01 h -3.773 v -2.503 h 7.201 v 9.407 h -2.111 l -0.477,-2.416 -0.336,0.433 c -0.689,0.886 -1.459,1.512 -2.287,1.86 -0.839,0.353 -1.695,0.533 -2.547,0.533 z"
         id="path94"
         inkscape:connector-curvature="0" /><path
         style="fill:#f5fbfd"
         d="m 315.485,401.402 c 0.886,0 1.754,0.134 2.581,0.399 0.819,0.262 1.571,0.654 2.234,1.165 0.655,0.505 1.203,1.138 1.63,1.882 0.342,0.596 0.58,1.274 0.709,2.022 h -2.895 c -0.289,-0.953 -0.782,-1.695 -1.469,-2.21 -0.77,-0.578 -1.708,-0.871 -2.79,-0.871 -0.988,0 -1.847,0.198 -2.552,0.589 -0.702,0.388 -1.278,0.917 -1.714,1.572 -0.424,0.635 -0.737,1.367 -0.93,2.176 -0.188,0.787 -0.283,1.612 -0.283,2.452 0,0.807 0.096,1.603 0.284,2.365 0.194,0.784 0.507,1.499 0.931,2.124 0.436,0.646 1.012,1.169 1.712,1.557 0.704,0.39 1.563,0.588 2.552,0.588 1.46,0 2.615,-0.386 3.433,-1.147 0.809,-0.752 1.288,-1.836 1.425,-3.223 l 0.013,-0.244 -0.149,-0.164 -0.17,-0.174 h -0.221 -3.523 v -2.003 h 6.701 v 8.907 h -1.656 l -0.331,-1.676 -0.212,-1.075 -0.673,0.865 c -0.663,0.852 -1.398,1.452 -2.187,1.784 -0.807,0.341 -1.631,0.513 -2.449,0.513 -1.328,0 -2.534,-0.232 -3.587,-0.691 -1.05,-0.457 -1.947,-1.093 -2.664,-1.891 -0.723,-0.803 -1.285,-1.761 -1.672,-2.849 -0.389,-1.096 -0.587,-2.296 -0.587,-3.567 0,-1.306 0.198,-2.534 0.588,-3.647 0.387,-1.106 0.951,-2.082 1.674,-2.901 0.718,-0.815 1.615,-1.463 2.664,-1.927 1.05,-0.464 2.256,-0.7 3.583,-0.7 m 0,-0.5 c -1.403,0 -2.666,0.248 -3.786,0.744 -1.121,0.496 -2.066,1.181 -2.836,2.054 -0.77,0.872 -1.36,1.895 -1.771,3.066 -0.411,1.173 -0.616,2.443 -0.616,3.812 0,1.334 0.205,2.579 0.616,3.734 0.411,1.155 1.001,2.16 1.771,3.016 0.77,0.856 1.715,1.527 2.836,2.015 1.121,0.488 2.383,0.732 3.786,0.732 0.889,0 1.771,-0.185 2.644,-0.553 0.873,-0.367 1.668,-1.014 2.387,-1.938 l 0.406,2.056 c 0.003,0.013 0.014,0.023 0.028,0.023 h 2.515 c 0.016,0 0.028,-0.013 0.028,-0.028 v -9.85 c 0,-0.016 -0.013,-0.028 -0.028,-0.028 h -7.644 c -0.016,0 -0.028,0.013 -0.028,0.028 v 2.946 c 0,0.016 0.013,0.028 0.028,0.028 h 3.995 c 0.017,0 0.031,0.016 0.029,0.034 -0.124,1.267 -0.547,2.235 -1.267,2.905 -0.728,0.677 -1.758,1.014 -3.093,1.014 -0.907,0 -1.677,-0.175 -2.31,-0.525 -0.633,-0.351 -1.147,-0.817 -1.54,-1.399 -0.394,-0.581 -0.68,-1.236 -0.86,-1.964 -0.18,-0.727 -0.27,-1.476 -0.27,-2.245 0,-0.805 0.09,-1.583 0.27,-2.336 0.18,-0.753 0.466,-1.425 0.86,-2.015 0.393,-0.591 0.907,-1.062 1.54,-1.412 0.633,-0.351 1.403,-0.526 2.31,-0.526 0.975,0 1.805,0.257 2.49,0.771 0.679,0.509 1.139,1.272 1.381,2.288 0.003,0.012 0.014,0.022 0.027,0.022 h 3.796 c 0.017,0 0.031,-0.016 0.029,-0.033 -0.105,-1.029 -0.386,-1.943 -0.843,-2.738 -0.462,-0.805 -1.048,-1.48 -1.758,-2.028 -0.71,-0.547 -1.506,-0.963 -2.387,-1.245 -0.881,-0.282 -1.794,-0.425 -2.735,-0.425 l 0,0 z"
         id="path96"
         inkscape:connector-curvature="0" /></g><g
       id="g98"><linearGradient
         id="SVGID_6_"
         gradientUnits="userSpaceOnUse"
         x1="328.56149"
         y1="401.86169"
         x2="328.56149"
         y2="419.33069"><stop
           offset="0"
           style="stop-color:#E2EEF4"
           id="stop101" /><stop
           offset="1"
           style="stop-color:#CDE5F3"
           id="stop103" /></linearGradient><path
         style="fill:url(#SVGID_6_)"
         d="m 326.797,419.415 v -3.453 h 3.529 v 3.453 h -3.529 z m 1.048,-5.494 -0.947,-7.684 0.002,-4.649 h 3.299 v 4.676 l -0.972,7.657 h -1.382 z"
         id="path105"
         inkscape:connector-curvature="0" /><path
         style="fill:#f5fbfd"
         d="m 329.948,401.839 v 4.396 l -0.942,7.437 h -0.94 l -0.917,-7.436 v -4.397 h 2.799 m 0.129,14.373 v 2.953 h -3.03 v -2.953 h 3.03 m 0.343,-14.873 h -3.742 c -0.016,0 -0.028,0.013 -0.028,0.028 v 4.898 c 0,0.001 0,0.002 0,0.003 l 0.972,7.879 c 0.002,0.014 0.014,0.025 0.028,0.025 h 1.773 c 0.014,0 0.026,-0.011 0.028,-0.025 l 0.998,-7.879 c 0,-10e-4 0,-0.002 0,-0.004 v -4.897 c -0.001,-0.016 -0.014,-0.028 -0.029,-0.028 l 0,0 z m 0.128,14.373 h -3.973 c -0.016,0 -0.028,0.013 -0.028,0.028 v 3.896 c 0,0.016 0.013,0.028 0.028,0.028 h 3.973 c 0.016,0 0.028,-0.013 0.028,-0.028 v -3.896 c 10e-4,-0.016 -0.012,-0.028 -0.028,-0.028 l 0,0 z"
         id="path107"
         inkscape:connector-curvature="0" /></g></g></svg>