<?xml version="1.0" encoding="UTF-8" standalone="no"?>
<!-- Generator: Adobe Illustrator 18.1.1, SVG Export Plug-In . SVG Version: 6.00 Build 0)  -->

<svg
   xmlns:dc="http://purl.org/dc/elements/1.1/"
   xmlns:cc="http://creativecommons.org/ns#"
   xmlns:rdf="http://www.w3.org/1999/02/22-rdf-syntax-ns#"
   xmlns:svg="http://www.w3.org/2000/svg"
   xmlns="http://www.w3.org/2000/svg"
   xmlns:sodipodi="http://sodipodi.sourceforge.net/DTD/sodipodi-0.dtd"
   xmlns:inkscape="http://www.inkscape.org/namespaces/inkscape"
   version="1.1"
   id="Layer_1"
   x="0px"
   y="0px"
   viewBox="0 0 195.689 195.688"
   xml:space="preserve"
   inkscape:version="0.48.4 r9939"
   width="100%"
   height="100%"
   sodipodi:docname="Phone.svg"><metadata
     id="metadata203"><rdf:RDF><cc:Work
         rdf:about=""><dc:format>image/svg+xml</dc:format><dc:type
           rdf:resource="http://purl.org/dc/dcmitype/StillImage" /></cc:Work></rdf:RDF></metadata><defs
     id="defs201" /><sodipodi:namedview
     pagecolor="#ffffff"
     bordercolor="#666666"
     borderopacity="1"
     objecttolerance="10"
     gridtolerance="10"
     guidetolerance="10"
     inkscape:pageopacity="0"
     inkscape:pageshadow="2"
     inkscape:window-width="919"
     inkscape:window-height="776"
     id="namedview199"
     showgrid="false"
     inkscape:zoom="25.37182"
     inkscape:cx="42.537767"
     inkscape:cy="132.91916"
     inkscape:window-x="237"
     inkscape:window-y="230"
     inkscape:window-maximized="0"
     inkscape:current-layer="Layer_1"
     fit-margin-top="0"
     fit-margin-left="0"
     fit-margin-right="0"
     fit-margin-bottom="0" /><g
     id="g3"
     transform="translate(-199.56101,-323.492)"><linearGradient
       id="SVGID_1_"
       gradientUnits="userSpaceOnUse"
       x1="297.405"
       y1="324.43469"
       x2="297.405"
       y2="518.20068"><stop
         offset="0"
         style="stop-color:#FFFFFF;stop-opacity:0.7"
         id="stop6" /><stop
         offset="0.9987"
         style="stop-color:#D8D9D8;stop-opacity:0.7"
         id="stop8" /></linearGradient><path
       style="fill:url(#SVGID_1_);fill-rule:evenodd"
       d="m 209.185,518.68 c -5.031,0 -9.124,-4.093 -9.124,-9.123 v -176.44 c 0,-5.031 4.093,-9.124 9.124,-9.124 h 176.44 c 5.031,0 9.124,4.093 9.124,9.124 v 176.44 c 0,5.03 -4.093,9.123 -9.124,9.123 h -176.44 z"
       id="path10"
       inkscape:connector-curvature="0" /><path
       style="fill:#d8d8d7"
       d="m 385.625,324.492 c 4.755,0 8.624,3.868 8.624,8.624 v 176.441 c 0,4.755 -3.868,8.623 -8.624,8.623 h -176.44 c -4.755,0 -8.624,-3.868 -8.624,-8.623 V 333.116 c 0,-4.755 3.868,-8.624 8.624,-8.624 h 176.44 m 0,-1 h -176.44 c -5.315,0 -9.624,4.309 -9.624,9.624 v 176.441 c 0,5.315 4.309,9.623 9.624,9.623 h 176.441 c 5.315,0 9.624,-4.308 9.624,-9.623 V 333.116 c -10e-4,-5.315 -4.31,-9.624 -9.625,-9.624 l 0,0 z"
       id="path12"
       inkscape:connector-curvature="0" /></g><g
     id="g14"
     transform="translate(-199.56101,-323.492)"><linearGradient
       id="SVGID_2_"
       gradientUnits="userSpaceOnUse"
       x1="297.5188"
       y1="379.46899"
       x2="297.5188"
       y2="476.5372"><stop
         offset="0"
         style="stop-color:#2D8F57"
         id="stop17" /><stop
         offset="1"
         style="stop-color:#247746"
         id="stop19" /></linearGradient><path
       style="fill:url(#SVGID_2_);fill-rule:evenodd"
       d="m 323.719,412.993 v -18.74 H 271.4 v 18.74 H 240.862 V 392.51 l 0.011,-0.25 v -1.15 c 0,-7.968 4.717,-11.841 14.421,-11.841 h 84.879 c 9.554,0 14.003,4.035 14.003,12.698 v 2.287 h -0.103 v 18.74 h -30.354 z"
       id="path21"
       inkscape:connector-curvature="0" /><path
       style="fill:#247746"
       d="m 340.172,379.518 c 9.383,0 13.753,3.956 13.753,12.448 v 2.037 h -0.102 v 0.5 18.24 h -29.855 v -18.24 -0.5 h -0.5 -51.82 -0.5 v 0.5 18.24 H 241.11 V 392.76 h 0.012 v -0.5 -1.15 c 0,-7.799 4.635,-11.591 14.171,-11.591 h 84.879 m 0,-0.501 c -21.886,0 -63.476,0 -84.878,0 -10.194,0 -14.671,4.359 -14.671,12.091 0,0.439 0,0.816 0,1.15 h -0.012 v 20.984 h 31.038 v -18.74 h 51.82 v 18.74 h 30.855 v -18.74 h 0.102 c 0,0 0,-1.02 0,-2.537 0,-7.571 -3.316,-12.948 -14.254,-12.948 l 0,0 z"
       id="path23"
       inkscape:connector-curvature="0" /></g><g
     id="g25"
     transform="translate(-199.56101,-323.492)"><g
       id="g27"><path
         style="fill:#96baa4;fill-rule:evenodd"
         d="m 240.623,392.26 h -0.012 v 1 h 0.012 c 0,-0.294 0,-0.628 0,-1 z"
         id="path29"
         inkscape:connector-curvature="0" /></g><g
       id="g31"><path
         style="fill:#1e6035;fill-rule:evenodd"
         d="m 340.172,379.018 c -21.886,0 -63.476,0 -84.878,0 -10.56705,0.0408 -15.02572,4.86892 -14.671,13.091 0,-7.732 4.477,-11.901 14.671,-11.901 21.403,0 62.993,-2.1e-4 84.878,0 9.26381,0.32125 14.05593,7.72823 14.253,11.759 10e-4,-7.572 -3.315,-12.949 -14.253,-12.949 z"
         id="path33"
         inkscape:connector-curvature="0"
         sodipodi:nodetypes="sccsccs" /></g></g><g
     id="g35"
     transform="translate(-199.56101,-323.492)"><linearGradient
       id="SVGID_3_"
       gradientUnits="userSpaceOnUse"
       x1="297.4675"
       y1="379.59189"
       x2="297.4675"
       y2="477.47699"><stop
         offset="0"
         style="stop-color:#2D8F57"
         id="stop38" /><stop
         offset="1"
         style="stop-color:#247746"
         id="stop40" /></linearGradient><path
       style="fill:url(#SVGID_3_);fill-rule:evenodd"
       d="m 240.862,477.046 c 0.036,-21.582 4.705,-41.18 13.878,-58.254 h 21.99 v -20.309 h 11.143 v 10.237 h 19.348 v -10.237 h 11.473 v 20.309 h 21.113 c 6.505,12.096 14.218,31.972 14.267,58.254 H 240.862 z"
       id="path42"
       inkscape:connector-curvature="0" /><path
       style="fill:#247746"
       d="m 318.443,398.734 v 19.808 0.5 h 0.5 20.714 c 6.456,12.045 14.069,31.742 14.165,57.754 h -112.71 c 0.071,-21.386 4.706,-40.813 13.777,-57.754 h 21.59 0.5 v -0.5 -19.808 h 10.643 v 9.737 0.5 h 0.5 18.848 0.5 v -0.5 -9.737 h 10.973 m 0.5,-0.5 h -11.972 v 10.237 H 288.123 V 398.234 H 276.48 v 20.308 c 0,0 -11.825,0 -21.889,0 -7.057,13.092 -13.979,32.586 -13.979,58.754 43.235,0 77.889,0 113.712,0 0,-25.693 -7.176,-45.427 -14.367,-58.754 -9.858,0 -21.013,0 -21.013,0 v -20.308 l -0.001,0 z"
       id="path44"
       inkscape:connector-curvature="0" /></g><g
     id="g46"
     transform="translate(-199.56101,-323.492)"><path
       style="fill:#1e6035;fill-rule:evenodd"
       d="m 272.181,429.65 h 13.338 v 7.738 h -13.338 v -7.738 z"
       id="path48"
       inkscape:connector-curvature="0" /></g><g
     id="g50"
     transform="translate(-199.56101,-323.492)"><path
       style="fill:#1e6035;fill-rule:evenodd"
       d="m 290.07,429.65 h 13.338 v 7.738 H 290.07 v -7.738 z"
       id="path52"
       inkscape:connector-curvature="0" /></g><g
     id="g54"
     transform="translate(-199.56101,-323.492)"><path
       style="fill:#1e6035;fill-rule:evenodd"
       d="m 307.959,429.65 h 13.338 v 7.738 h -13.338 v -7.738 z"
       id="path56"
       inkscape:connector-curvature="0" /></g><g
     id="g58"
     transform="translate(-199.56101,-323.492)"><path
       style="fill:#1e6035;fill-rule:evenodd"
       d="m 272.181,441.099 h 13.338 v 7.738 h -13.338 v -7.738 z"
       id="path60"
       inkscape:connector-curvature="0" /></g><g
     id="g62"
     transform="translate(-199.56101,-323.492)"><path
       style="fill:#1e6035;fill-rule:evenodd"
       d="m 290.07,441.099 h 13.338 v 7.738 H 290.07 v -7.738 z"
       id="path64"
       inkscape:connector-curvature="0" /></g><g
     id="g66"
     transform="translate(-199.56101,-323.492)"><path
       style="fill:#1e6035;fill-rule:evenodd"
       d="m 307.959,441.099 h 13.338 v 7.738 h -13.338 v -7.738 z"
       id="path68"
       inkscape:connector-curvature="0" /></g><g
     id="g70"
     transform="translate(-199.56101,-323.492)"><path
       style="fill:#1e6035;fill-rule:evenodd"
       d="m 272.181,452.548 h 13.338 v 7.738 h -13.338 v -7.738 z"
       id="path72"
       inkscape:connector-curvature="0" /></g><g
     id="g74"
     transform="translate(-199.56101,-323.492)"><path
       style="fill:#1e6035;fill-rule:evenodd"
       d="m 290.07,452.548 h 13.338 v 7.738 H 290.07 v -7.738 z"
       id="path76"
       inkscape:connector-curvature="0" /></g><g
     id="g78"
     transform="translate(-199.56101,-323.492)"><path
       style="fill:#1e6035;fill-rule:evenodd"
       d="m 307.959,452.548 h 13.338 v 7.738 h -13.338 v -7.738 z"
       id="path80"
       inkscape:connector-curvature="0" /></g><g
     id="g82"
     transform="translate(-199.56101,-323.492)"><linearGradient
       id="SVGID_4_"
       gradientUnits="userSpaceOnUse"
       x1="278.8501"
       y1="429.478"
       x2="278.8501"
       y2="455.63269"><stop
         offset="0"
         style="stop-color:#ADCBB8"
         id="stop85" /><stop
         offset="1"
         style="stop-color:#96BAA4"
         id="stop87" /></linearGradient><rect
       x="272.681"
       y="429.14999"
       style="fill:url(#SVGID_4_);fill-rule:evenodd"
       width="12.338"
       height="6.7379999"
       id="rect89" /><path
       style="fill:#c3dccb"
       d="m 284.519,429.65 v 5.738 h -11.338 v -5.738 h 11.338 m 1,-1 h -13.338 v 7.738 h 13.338 v -7.738 l 0,0 z"
       id="path91"
       inkscape:connector-curvature="0" /></g><g
     id="g93"
     transform="translate(-199.56101,-323.492)"><linearGradient
       id="SVGID_5_"
       gradientUnits="userSpaceOnUse"
       x1="296.73929"
       y1="429.478"
       x2="296.73929"
       y2="455.63269"><stop
         offset="0"
         style="stop-color:#ADCBB8"
         id="stop96" /><stop
         offset="1"
         style="stop-color:#96BAA4"
         id="stop98" /></linearGradient><rect
       x="290.57001"
       y="429.14999"
       style="fill:url(#SVGID_5_);fill-rule:evenodd"
       width="12.338"
       height="6.7379999"
       id="rect100" /><path
       style="fill:#c3dccb"
       d="m 302.408,429.65 v 5.738 H 291.07 v -5.738 h 11.338 m 1,-1 H 290.07 v 7.738 h 13.338 v -7.738 l 0,0 z"
       id="path102"
       inkscape:connector-curvature="0" /></g><g
     id="g104"
     transform="translate(-199.56101,-323.492)"><linearGradient
       id="SVGID_6_"
       gradientUnits="userSpaceOnUse"
       x1="314.6279"
       y1="429.478"
       x2="314.6279"
       y2="455.63269"><stop
         offset="0"
         style="stop-color:#ADCBB8"
         id="stop107" /><stop
         offset="1"
         style="stop-color:#96BAA4"
         id="stop109" /></linearGradient><rect
       x="308.45901"
       y="429.14999"
       style="fill:url(#SVGID_6_);fill-rule:evenodd"
       width="12.338"
       height="6.7379999"
       id="rect111" /><path
       style="fill:#c3dccb"
       d="m 320.297,429.65 v 5.738 h -11.338 v -5.738 h 11.338 m 1,-1 h -13.338 v 7.738 h 13.338 v -7.738 l 0,0 z"
       id="path113"
       inkscape:connector-curvature="0" /></g><g
     id="g115"
     transform="translate(-199.56101,-323.492)"><linearGradient
       id="SVGID_7_"
       gradientUnits="userSpaceOnUse"
       x1="278.8501"
       y1="430.95789"
       x2="278.8501"
       y2="457.11221"><stop
         offset="0"
         style="stop-color:#ADCBB8"
         id="stop118" /><stop
         offset="1"
         style="stop-color:#96BAA4"
         id="stop120" /></linearGradient><rect
       x="272.681"
       y="440.60001"
       style="fill:url(#SVGID_7_);fill-rule:evenodd"
       width="12.338"
       height="6.7379999"
       id="rect122" /><path
       style="fill:#c3dccb"
       d="m 284.519,441.099 v 5.738 h -11.338 v -5.738 h 11.338 m 1,-1 h -13.338 v 7.738 h 13.338 v -7.738 l 0,0 z"
       id="path124"
       inkscape:connector-curvature="0" /></g><g
     id="g126"
     transform="translate(-199.56101,-323.492)"><linearGradient
       id="SVGID_8_"
       gradientUnits="userSpaceOnUse"
       x1="296.73929"
       y1="430.95789"
       x2="296.73929"
       y2="457.11221"><stop
         offset="0"
         style="stop-color:#ADCBB8"
         id="stop129" /><stop
         offset="1"
         style="stop-color:#96BAA4"
         id="stop131" /></linearGradient><rect
       x="290.57001"
       y="440.60001"
       style="fill:url(#SVGID_8_);fill-rule:evenodd"
       width="12.338"
       height="6.7379999"
       id="rect133" /><path
       style="fill:#c3dccb"
       d="m 302.408,441.099 v 5.738 H 291.07 v -5.738 h 11.338 m 1,-1 H 290.07 v 7.738 h 13.338 v -7.738 l 0,0 z"
       id="path135"
       inkscape:connector-curvature="0" /></g><g
     id="g137"
     transform="translate(-199.56101,-323.492)"><linearGradient
       id="SVGID_9_"
       gradientUnits="userSpaceOnUse"
       x1="314.6279"
       y1="430.95789"
       x2="314.6279"
       y2="457.11221"><stop
         offset="0"
         style="stop-color:#ADCBB8"
         id="stop140" /><stop
         offset="1"
         style="stop-color:#96BAA4"
         id="stop142" /></linearGradient><rect
       x="308.45901"
       y="440.60001"
       style="fill:url(#SVGID_9_);fill-rule:evenodd"
       width="12.338"
       height="6.7379999"
       id="rect144" /><path
       style="fill:#c3dccb"
       d="m 320.297,441.099 v 5.738 h -11.338 v -5.738 h 11.338 m 1,-1 h -13.338 v 7.738 h 13.338 v -7.738 l 0,0 z"
       id="path146"
       inkscape:connector-curvature="0" /></g><g
     id="g148"
     transform="translate(-199.56101,-323.492)"><linearGradient
       id="SVGID_10_"
       gradientUnits="userSpaceOnUse"
       x1="278.8501"
       y1="432.43359"
       x2="278.8501"
       y2="458.5921"><stop
         offset="0"
         style="stop-color:#ADCBB8"
         id="stop151" /><stop
         offset="1"
         style="stop-color:#96BAA4"
         id="stop153" /></linearGradient><rect
       x="272.681"
       y="452.048"
       style="fill:url(#SVGID_10_);fill-rule:evenodd"
       width="12.338"
       height="6.7389998"
       id="rect155" /><path
       style="fill:#c3dccb"
       d="m 284.519,452.548 v 5.738 h -11.338 v -5.738 h 11.338 m 1,-1 h -13.338 v 7.738 h 13.338 v -7.738 l 0,0 z"
       id="path157"
       inkscape:connector-curvature="0" /></g><g
     id="g159"
     transform="translate(-199.56101,-323.492)"><linearGradient
       id="SVGID_11_"
       gradientUnits="userSpaceOnUse"
       x1="296.73929"
       y1="432.43359"
       x2="296.73929"
       y2="458.5921"><stop
         offset="0"
         style="stop-color:#ADCBB8"
         id="stop162" /><stop
         offset="1"
         style="stop-color:#96BAA4"
         id="stop164" /></linearGradient><rect
       x="290.57001"
       y="452.048"
       style="fill:url(#SVGID_11_);fill-rule:evenodd"
       width="12.338"
       height="6.7389998"
       id="rect166" /><path
       style="fill:#c3dccb"
       d="m 302.408,452.548 v 5.738 H 291.07 v -5.738 h 11.338 m 1,-1 H 290.07 v 7.738 h 13.338 v -7.738 l 0,0 z"
       id="path168"
       inkscape:connector-curvature="0" /></g><g
     id="g170"
     transform="translate(-199.56101,-323.492)"><linearGradient
       id="SVGID_12_"
       gradientUnits="userSpaceOnUse"
       x1="314.6279"
       y1="432.43359"
       x2="314.6279"
       y2="458.5921"><stop
         offset="0"
         style="stop-color:#ADCBB8"
         id="stop173" /><stop
         offset="1"
         style="stop-color:#96BAA4"
         id="stop175" /></linearGradient><rect
       x="308.45901"
       y="452.048"
       style="fill:url(#SVGID_12_);fill-rule:evenodd"
       width="12.338"
       height="6.7389998"
       id="rect177" /><path
       style="fill:#c3dccb"
       d="m 320.297,452.548 v 5.738 h -11.338 v -5.738 h 11.338 m 1,-1 h -13.338 v 7.738 h 13.338 v -7.738 l 0,0 z"
       id="path179"
       inkscape:connector-curvature="0" /></g><rect
     x="41.050991"
     y="153.80399"
     style="fill:#e1dfe2;fill-rule:evenodd"
     width="113.712"
     height="1.527"
     id="rect181" /><rect
     x="41.050991"
     y="89.236"
     style="fill:#e1dfe2;fill-rule:evenodd"
     width="31.038"
     height="1.166"
     id="rect183" /><rect
     x="71.567986"
     y="70.518013"
     style="fill:#e1dfe2;fill-rule:evenodd"
     width="52.827999"
     height="1.166"
     id="rect185" /><rect
     x="76.918999"
     y="74.742012"
     style="fill:#1e6035;fill-rule:evenodd"
     width="11.643"
     height="1.166"
     id="rect187" /><polygon
     style="fill:#1e6035;fill-rule:evenodd"
     points="277.05,418.542 277.05,419.708 254.005,419.708 254.591,418.542 "
     id="polygon189"
     transform="translate(-199.56101,-323.492)" /><rect
     x="107.41"
     y="74.742012"
     style="fill:#1e6035;fill-rule:evenodd"
     width="11.972"
     height="1.166"
     id="rect191" /><polygon
     style="fill:#1e6035;fill-rule:evenodd"
     points="339.956,418.542 340.577,419.708 318.43,419.708 318.43,418.542 "
     id="polygon193"
     transform="translate(-199.56101,-323.492)" /><rect
     x="88.053001"
     y="84.978004"
     style="fill:#1e6035;fill-rule:evenodd"
     width="19.858999"
     height="1.166"
     id="rect195" /><rect
     x="123.90798"
     y="89.13401"
     style="fill:#e1dfe2;fill-rule:evenodd"
     width="30.855"
     height="1.166"
     id="rect197" /></svg>