<?xml version="1.0" encoding="UTF-8" standalone="no"?>
<!-- Generator: Adobe Illustrator 18.1.1, SVG Export Plug-In . SVG Version: 6.00 Build 0)  -->

<svg
   xmlns:dc="http://purl.org/dc/elements/1.1/"
   xmlns:cc="http://creativecommons.org/ns#"
   xmlns:rdf="http://www.w3.org/1999/02/22-rdf-syntax-ns#"
   xmlns:svg="http://www.w3.org/2000/svg"
   xmlns="http://www.w3.org/2000/svg"
   xmlns:sodipodi="http://sodipodi.sourceforge.net/DTD/sodipodi-0.dtd"
   xmlns:inkscape="http://www.inkscape.org/namespaces/inkscape"
   version="1.1"
   id="Layer_1"
   x="0px"
   y="0px"
   viewBox="0 0 198.205 197.727"
   xml:space="preserve"
   inkscape:version="0.48.4 r9939"
   width="100%"
   height="100%"
   sodipodi:docname="Settings.svg"><metadata
     id="metadata198"><rdf:RDF><cc:Work
         rdf:about=""><dc:format>image/svg+xml</dc:format><dc:type
           rdf:resource="http://purl.org/dc/dcmitype/StillImage" /></cc:Work></rdf:RDF></metadata><defs
     id="defs196" /><sodipodi:namedview
     pagecolor="#ffffff"
     bordercolor="#666666"
     borderopacity="1"
     objecttolerance="10"
     gridtolerance="10"
     guidetolerance="10"
     inkscape:pageopacity="0"
     inkscape:pageshadow="2"
     inkscape:window-width="1855"
     inkscape:window-height="1056"
     id="namedview194"
     showgrid="false"
     inkscape:zoom="8.970293"
     inkscape:cx="106.85199"
     inkscape:cy="108.17733"
     inkscape:window-x="65"
     inkscape:window-y="24"
     inkscape:window-maximized="1"
     inkscape:current-layer="Layer_1"
     fit-margin-top="0"
     fit-margin-left="0"
     fit-margin-right="0"
     fit-margin-bottom="0" /><g
     id="g3"
     transform="translate(-198.86801,-322.477)"><linearGradient
       id="SVGID_1_"
       gradientUnits="userSpaceOnUse"
       x1="297.9707"
       y1="323.84149"
       x2="297.9707"
       y2="518.87842"><stop
         offset="0"
         style="stop-color:#FFFFFF;stop-opacity:0.7"
         id="stop6" /><stop
         offset="0.9987"
         style="stop-color:#D8D9D8;stop-opacity:0.7"
         id="stop8" /></linearGradient><path
       style="fill:url(#SVGID_1_);fill-rule:evenodd"
       d="m 209.538,519.703 c -5.608,0 -10.17,-4.562 -10.17,-10.17 V 333.146 c 0,-5.608 4.562,-10.17 10.17,-10.17 h 176.865 c 5.607,0 10.17,4.562 10.17,10.17 v 176.387 c 0,5.607 -4.562,10.17 -10.17,10.17 H 209.538 z"
       id="path10"
       inkscape:connector-curvature="0" /><path
       style="fill:#d8d8d7"
       d="m 386.404,323.477 c 5.332,0 9.67,4.338 9.67,9.67 v 176.387 c 0,5.332 -4.338,9.67 -9.67,9.67 H 209.538 c -5.332,0 -9.67,-4.338 -9.67,-9.67 V 333.147 c 0,-5.332 4.338,-9.67 9.67,-9.67 h 176.866 m 0,-1 H 209.538 c -5.893,0 -10.67,4.777 -10.67,10.67 v 176.387 c 0,5.893 4.777,10.67 10.67,10.67 h 176.865 c 5.893,0 10.67,-4.777 10.67,-10.67 V 333.147 c 0.001,-5.893 -4.777,-10.67 -10.669,-10.67 l 0,0 z"
       id="path12"
       inkscape:connector-curvature="0" /></g><g
     id="g14"
     transform="translate(-198.86801,-322.477)"><linearGradient
       id="SVGID_2_"
       gradientUnits="userSpaceOnUse"
       x1="245.7205"
       y1="365.71552"
       x2="245.7205"
       y2="468.46078"><stop
         offset="0.0061"
         style="stop-color:#EE4748"
         id="stop17" /><stop
         offset="1"
         style="stop-color:#E33C3B"
         id="stop19" /></linearGradient><path
       style="fill:url(#SVGID_2_);fill-rule:evenodd"
       d="m 235.816,397.952 c -3.191,0 -5.788,-2.596 -5.788,-5.787 v -19.809 c 0,-3.191 2.596,-5.788 5.788,-5.788 h 19.809 c 3.191,0 5.787,2.596 5.787,5.788 v 19.809 c 0,3.191 -2.596,5.787 -5.787,5.787 h -19.809 z"
       id="path21"
       inkscape:connector-curvature="0" /><path
       style="fill:#ce3737"
       d="m 255.625,367.069 c 2.915,0 5.287,2.372 5.287,5.287 l 0,19.809 c 0,2.915 -2.372,5.287 -5.287,5.287 l -19.809,0 c -2.915,0 -5.287,-2.372 -5.287,-5.287 l 0,-19.809 c 0,-2.915 2.372,-5.287 5.287,-5.287 l 19.809,0 m 0,-1 -19.809,0 c -3.472,0 -6.287,2.815 -6.287,6.287 l 0,19.809 c 0,3.472 2.815,6.287 6.287,6.287 l 19.809,0 c 3.472,0 6.287,-2.92648 6.287,-6.287 l 0,-19.809 c 0,-3.472 -2.815,-6.287 -6.287,-6.287 z"
       id="path23"
       inkscape:connector-curvature="0"
       sodipodi:nodetypes="csssssssccssssssscc" /></g><g
     id="g25"
     transform="translate(-198.86801,-322.477)"><linearGradient
       id="SVGID_3_"
       gradientUnits="userSpaceOnUse"
       x1="281.9429"
       y1="365.71552"
       x2="281.9429"
       y2="468.46078"><stop
         offset="0.0061"
         style="stop-color:#EE4748"
         id="stop28" /><stop
         offset="1"
         style="stop-color:#E33C3B"
         id="stop30" /></linearGradient><path
       style="fill:url(#SVGID_3_);fill-rule:evenodd"
       d="m 272.039,397.952 c -3.191,0 -5.787,-2.596 -5.787,-5.787 v -19.809 c 0,-3.191 2.596,-5.788 5.787,-5.788 h 19.809 c 3.191,0 5.787,2.596 5.787,5.788 v 19.809 c 0,3.191 -2.596,5.787 -5.787,5.787 h -19.809 z"
       id="path32"
       inkscape:connector-curvature="0" /><path
       style="fill:#ce3737"
       d="m 291.847,367.069 c 2.915,0 5.287,2.372 5.287,5.287 v 19.809 c 0,2.915 -2.372,5.287 -5.287,5.287 h -19.809 c -2.915,0 -5.287,-2.372 -5.287,-5.287 v -19.809 c 0,-2.915 2.372,-5.287 5.287,-5.287 h 19.809 m 0,-1 h -19.809 c -3.472,0 -6.287,2.815 -6.287,6.287 v 19.809 c 0,3.472 2.815,6.287 6.287,6.287 h 19.809 c 3.472,0 6.287,-2.815 6.287,-6.287 v -19.809 c 0,-3.472 -2.814,-6.287 -6.287,-6.287 l 0,0 z"
       id="path34"
       inkscape:connector-curvature="0" /></g><g
     id="g36"
     transform="translate(-198.86801,-322.477)"><linearGradient
       id="SVGID_4_"
       gradientUnits="userSpaceOnUse"
       x1="317.79349"
       y1="365.71552"
       x2="317.79349"
       y2="468.46078"><stop
         offset="0.0061"
         style="stop-color:#EE4748"
         id="stop39" /><stop
         offset="1"
         style="stop-color:#E33C3B"
         id="stop41" /></linearGradient><path
       style="fill:url(#SVGID_4_);fill-rule:evenodd"
       d="m 307.889,397.952 c -3.191,0 -5.787,-2.596 -5.787,-5.787 v -19.809 c 0,-3.191 2.596,-5.788 5.787,-5.788 h 19.809 c 3.191,0 5.788,2.596 5.788,5.788 v 19.809 c 0,3.191 -2.597,5.787 -5.788,5.787 h -19.809 z"
       id="path43"
       inkscape:connector-curvature="0" /><path
       style="fill:#ce3737"
       d="m 327.698,367.069 c 2.915,0 5.287,2.372 5.287,5.287 v 19.809 c 0,2.915 -2.372,5.287 -5.287,5.287 h -19.809 c -2.915,0 -5.287,-2.372 -5.287,-5.287 v -19.809 c 0,-2.915 2.372,-5.287 5.287,-5.287 h 19.809 m 0,-1 h -19.809 c -3.472,0 -6.287,2.815 -6.287,6.287 v 19.809 c 0,3.472 2.815,6.287 6.287,6.287 h 19.809 c 3.472,0 6.287,-2.815 6.287,-6.287 v -19.809 c 0,-3.472 -2.815,-6.287 -6.287,-6.287 l 0,0 z"
       id="path45"
       inkscape:connector-curvature="0" /></g><g
     id="g47"
     transform="translate(-198.86801,-322.477)"><linearGradient
       id="SVGID_5_"
       gradientUnits="userSpaceOnUse"
       x1="354.01559"
       y1="365.71552"
       x2="354.01559"
       y2="468.46078"><stop
         offset="0.0061"
         style="stop-color:#EE4748"
         id="stop50" /><stop
         offset="1"
         style="stop-color:#E33C3B"
         id="stop52" /></linearGradient><path
       style="fill:url(#SVGID_5_);fill-rule:evenodd"
       d="m 344.111,397.952 c -3.191,0 -5.787,-2.596 -5.787,-5.787 v -19.809 c 0,-3.191 2.596,-5.788 5.787,-5.788 h 19.809 c 3.191,0 5.787,2.596 5.787,5.788 v 19.809 c 0,3.191 -2.596,5.787 -5.787,5.787 h -19.809 z"
       id="path54"
       inkscape:connector-curvature="0" /><path
       style="fill:#ce3737"
       d="m 363.92,367.069 c 2.915,0 5.287,2.372 5.287,5.287 v 19.809 c 0,2.915 -2.372,5.287 -5.287,5.287 h -19.809 c -2.915,0 -5.287,-2.372 -5.287,-5.287 v -19.809 c 0,-2.915 2.372,-5.287 5.287,-5.287 h 19.809 m 0,-1 h -19.809 c -3.472,0 -6.287,2.815 -6.287,6.287 v 19.809 c 0,3.472 2.815,6.287 6.287,6.287 h 19.809 c 3.472,0 6.287,-2.815 6.287,-6.287 v -19.809 c 0,-3.472 -2.815,-6.287 -6.287,-6.287 l 0,0 z"
       id="path56"
       inkscape:connector-curvature="0" /></g><g
     id="g58"
     transform="translate(-198.86801,-322.477)"><linearGradient
       id="SVGID_6_"
       gradientUnits="userSpaceOnUse"
       x1="245.7205"
       y1="366.86359"
       x2="245.7205"
       y2="469.60889"><stop
         offset="0.0061"
         style="stop-color:#EE4748"
         id="stop61" /><stop
         offset="1"
         style="stop-color:#E33C3B"
         id="stop63" /></linearGradient><path
       style="fill:url(#SVGID_6_);fill-rule:evenodd"
       d="m 235.816,435.128 c -3.191,0 -5.788,-2.596 -5.788,-5.787 v -19.809 c 0,-3.191 2.596,-5.787 5.788,-5.787 h 19.809 c 3.191,0 5.787,2.596 5.787,5.787 v 19.809 c 0,3.191 -2.596,5.787 -5.787,5.787 h -19.809 z"
       id="path65"
       inkscape:connector-curvature="0" /><path
       style="fill:#ce3737"
       d="m 255.625,404.244 c 2.915,0 5.287,2.372 5.287,5.287 v 19.809 c 0,2.915 -2.372,5.287 -5.287,5.287 h -19.809 c -2.915,0 -5.287,-2.372 -5.287,-5.287 v -19.809 c 0,-2.915 2.372,-5.287 5.287,-5.287 h 19.809 m 0,-1 h -19.809 c -3.472,0 -6.287,2.815 -6.287,6.287 v 19.809 c 0,3.472 2.815,6.287 6.287,6.287 h 19.809 c 3.472,0 6.287,-2.815 6.287,-6.287 v -19.809 c 0,-3.472 -2.815,-6.287 -6.287,-6.287 l 0,0 z"
       id="path67"
       inkscape:connector-curvature="0" /></g><g
     id="g69"
     transform="translate(-198.86801,-322.477)"><linearGradient
       id="SVGID_7_"
       gradientUnits="userSpaceOnUse"
       x1="281.9429"
       y1="366.86359"
       x2="281.9429"
       y2="469.60889"><stop
         offset="0.0061"
         style="stop-color:#EE4748"
         id="stop72" /><stop
         offset="1"
         style="stop-color:#E33C3B"
         id="stop74" /></linearGradient><path
       style="fill:url(#SVGID_7_);fill-rule:evenodd"
       d="m 272.039,435.128 c -3.191,0 -5.787,-2.596 -5.787,-5.787 v -19.809 c 0,-3.191 2.596,-5.787 5.787,-5.787 h 19.809 c 3.191,0 5.787,2.596 5.787,5.787 v 19.809 c 0,3.191 -2.596,5.787 -5.787,5.787 h -19.809 z"
       id="path76"
       inkscape:connector-curvature="0" /><path
       style="fill:#ce3737"
       d="m 291.847,404.244 c 2.915,0 5.287,2.372 5.287,5.287 v 19.809 c 0,2.915 -2.372,5.287 -5.287,5.287 h -19.809 c -2.915,0 -5.287,-2.372 -5.287,-5.287 v -19.809 c 0,-2.915 2.372,-5.287 5.287,-5.287 h 19.809 m 0,-1 h -19.809 c -3.472,0 -6.287,2.815 -6.287,6.287 v 19.809 c 0,3.472 2.815,6.287 6.287,6.287 h 19.809 c 3.472,0 6.287,-2.815 6.287,-6.287 v -19.809 c 0,-3.472 -2.814,-6.287 -6.287,-6.287 l 0,0 z"
       id="path78"
       inkscape:connector-curvature="0" /></g><g
     id="g80"
     transform="translate(-198.86801,-322.477)"><linearGradient
       id="SVGID_8_"
       gradientUnits="userSpaceOnUse"
       x1="317.79349"
       y1="366.85529"
       x2="317.79349"
       y2="469.599"><stop
         offset="0.0061"
         style="stop-color:#EE4748"
         id="stop83" /><stop
         offset="1"
         style="stop-color:#E33C3B"
         id="stop85" /></linearGradient><path
       style="fill:url(#SVGID_8_);fill-rule:evenodd"
       d="m 307.889,434.837 c -3.191,0 -5.787,-2.596 -5.787,-5.787 v -19.809 c 0,-3.191 2.596,-5.787 5.787,-5.787 h 19.809 c 3.191,0 5.788,2.596 5.788,5.787 v 19.809 c 0,3.191 -2.597,5.787 -5.788,5.787 h -19.809 z"
       id="path87"
       inkscape:connector-curvature="0" /><path
       style="fill:#ce3737"
       d="m 327.698,403.954 c 2.915,0 5.287,2.372 5.287,5.287 v 19.809 c 0,2.915 -2.372,5.287 -5.287,5.287 h -19.809 c -2.915,0 -5.287,-2.372 -5.287,-5.287 v -19.809 c 0,-2.915 2.372,-5.287 5.287,-5.287 h 19.809 m 0,-1 h -19.809 c -3.472,0 -6.287,2.815 -6.287,6.287 v 19.809 c 0,3.472 2.815,6.287 6.287,6.287 h 19.809 c 3.472,0 6.287,-2.815 6.287,-6.287 v -19.809 c 0,-3.472 -2.815,-6.287 -6.287,-6.287 l 0,0 z"
       id="path89"
       inkscape:connector-curvature="0" /></g><g
     id="g91"
     transform="translate(-198.86801,-322.477)"><linearGradient
       id="SVGID_9_"
       gradientUnits="userSpaceOnUse"
       x1="354.01559"
       y1="366.85529"
       x2="354.01559"
       y2="469.599"><stop
         offset="0.0061"
         style="stop-color:#EE4748"
         id="stop94" /><stop
         offset="1"
         style="stop-color:#E33C3B"
         id="stop96" /></linearGradient><path
       style="fill:url(#SVGID_9_);fill-rule:evenodd"
       d="m 344.111,434.837 c -3.191,0 -5.787,-2.596 -5.787,-5.787 v -19.809 c 0,-3.191 2.596,-5.787 5.787,-5.787 h 19.809 c 3.191,0 5.787,2.596 5.787,5.787 v 19.809 c 0,3.191 -2.596,5.787 -5.787,5.787 h -19.809 z"
       id="path98"
       inkscape:connector-curvature="0" /><path
       style="fill:#ce3737"
       d="m 363.92,403.954 c 2.915,0 5.287,2.372 5.287,5.287 v 19.809 c 0,2.915 -2.372,5.287 -5.287,5.287 h -19.809 c -2.915,0 -5.287,-2.372 -5.287,-5.287 v -19.809 c 0,-2.915 2.372,-5.287 5.287,-5.287 h 19.809 m 0,-1 h -19.809 c -3.472,0 -6.287,2.815 -6.287,6.287 v 19.809 c 0,3.472 2.815,6.287 6.287,6.287 h 19.809 c 3.472,0 6.287,-2.815 6.287,-6.287 v -19.809 c 0,-3.472 -2.815,-6.287 -6.287,-6.287 l 0,0 z"
       id="path100"
       inkscape:connector-curvature="0" /></g><g
     id="g102"
     transform="translate(-198.86801,-322.477)"><linearGradient
       id="SVGID_10_"
       gradientUnits="userSpaceOnUse"
       x1="245.7205"
       y1="367.98279"
       x2="245.7205"
       y2="470.72681"><stop
         offset="0.0061"
         style="stop-color:#EE4748"
         id="stop105" /><stop
         offset="1"
         style="stop-color:#E33C3B"
         id="stop107" /></linearGradient><path
       style="fill:url(#SVGID_10_);fill-rule:evenodd"
       d="m 235.816,471.35 c -3.191,0 -5.788,-2.596 -5.788,-5.787 v -19.809 c 0,-3.191 2.596,-5.787 5.788,-5.787 h 19.809 c 3.191,0 5.787,2.596 5.787,5.787 v 19.809 c 0,3.191 -2.596,5.787 -5.787,5.787 h -19.809 z"
       id="path109"
       inkscape:connector-curvature="0" /><path
       style="fill:#ce3737"
       d="m 255.625,440.467 c 2.915,0 5.287,2.372 5.287,5.287 v 19.809 c 0,2.915 -2.372,5.287 -5.287,5.287 h -19.809 c -2.915,0 -5.287,-2.372 -5.287,-5.287 v -19.809 c 0,-2.915 2.372,-5.287 5.287,-5.287 h 19.809 m 0,-1 h -19.809 c -3.472,0 -6.287,2.815 -6.287,6.287 v 19.809 c 0,3.472 2.815,6.287 6.287,6.287 h 19.809 c 3.472,0 6.287,-2.815 6.287,-6.287 v -19.809 c 0,-3.472 -2.815,-6.287 -6.287,-6.287 l 0,0 z"
       id="path111"
       inkscape:connector-curvature="0" /></g><g
     id="g113"
     transform="translate(-198.86801,-322.477)"><linearGradient
       id="SVGID_11_"
       gradientUnits="userSpaceOnUse"
       x1="281.9429"
       y1="367.98279"
       x2="281.9429"
       y2="470.72681"><stop
         offset="0.0061"
         style="stop-color:#EE4748"
         id="stop116" /><stop
         offset="1"
         style="stop-color:#E33C3B"
         id="stop118" /></linearGradient><path
       style="fill:url(#SVGID_11_);fill-rule:evenodd"
       d="m 272.039,471.35 c -3.191,0 -5.787,-2.596 -5.787,-5.787 v -19.809 c 0,-3.191 2.596,-5.787 5.787,-5.787 h 19.809 c 3.191,0 5.787,2.596 5.787,5.787 v 19.809 c 0,3.191 -2.596,5.787 -5.787,5.787 h -19.809 z"
       id="path120"
       inkscape:connector-curvature="0" /><path
       style="fill:#ce3737"
       d="m 291.847,440.467 c 2.915,0 5.287,2.372 5.287,5.287 v 19.809 c 0,2.915 -2.372,5.287 -5.287,5.287 h -19.809 c -2.915,0 -5.287,-2.372 -5.287,-5.287 v -19.809 c 0,-2.915 2.372,-5.287 5.287,-5.287 h 19.809 m 0,-1 h -19.809 c -3.472,0 -6.287,2.815 -6.287,6.287 v 19.809 c 0,3.472 2.815,6.287 6.287,6.287 h 19.809 c 3.472,0 6.287,-2.815 6.287,-6.287 v -19.809 c 0,-3.472 -2.814,-6.287 -6.287,-6.287 l 0,0 z"
       id="path122"
       inkscape:connector-curvature="0" /></g><g
     id="g124"
     transform="translate(-198.86801,-322.477)"><linearGradient
       id="SVGID_12_"
       gradientUnits="userSpaceOnUse"
       x1="317.79349"
       y1="367.98279"
       x2="317.79349"
       y2="470.72681"><stop
         offset="0.0061"
         style="stop-color:#EE4748"
         id="stop127" /><stop
         offset="1"
         style="stop-color:#E33C3B"
         id="stop129" /></linearGradient><path
       style="fill:url(#SVGID_12_);fill-rule:evenodd"
       d="m 307.889,471.35 c -3.191,0 -5.787,-2.596 -5.787,-5.787 v -19.809 c 0,-3.191 2.596,-5.787 5.787,-5.787 h 19.809 c 3.191,0 5.788,2.596 5.788,5.787 v 19.809 c 0,3.191 -2.597,5.787 -5.788,5.787 h -19.809 z"
       id="path131"
       inkscape:connector-curvature="0" /><path
       style="fill:#ce3737"
       d="m 327.698,440.467 c 2.915,0 5.287,2.372 5.287,5.287 v 19.809 c 0,2.915 -2.372,5.287 -5.287,5.287 h -19.809 c -2.915,0 -5.287,-2.372 -5.287,-5.287 v -19.809 c 0,-2.915 2.372,-5.287 5.287,-5.287 h 19.809 m 0,-1 h -19.809 c -3.472,0 -6.287,2.815 -6.287,6.287 v 19.809 c 0,3.472 2.815,6.287 6.287,6.287 h 19.809 c 3.472,0 6.287,-2.815 6.287,-6.287 v -19.809 c 0,-3.472 -2.815,-6.287 -6.287,-6.287 l 0,0 z"
       id="path133"
       inkscape:connector-curvature="0" /></g><g
     id="g135"
     transform="translate(-198.86801,-322.477)"><linearGradient
       id="SVGID_13_"
       gradientUnits="userSpaceOnUse"
       x1="354.01559"
       y1="367.98279"
       x2="354.01559"
       y2="470.72681"><stop
         offset="0.0061"
         style="stop-color:#EE4748"
         id="stop138" /><stop
         offset="1"
         style="stop-color:#E33C3B"
         id="stop140" /></linearGradient><path
       style="fill:url(#SVGID_13_);fill-rule:evenodd"
       d="m 344.111,471.35 c -3.191,0 -5.787,-2.596 -5.787,-5.787 v -19.809 c 0,-3.191 2.596,-5.787 5.787,-5.787 h 19.809 c 3.191,0 5.787,2.596 5.787,5.787 v 19.809 c 0,3.191 -2.596,5.787 -5.787,5.787 h -19.809 z"
       id="path142"
       inkscape:connector-curvature="0" /><path
       style="fill:#ce3737"
       d="m 363.92,440.467 c 2.915,0 5.287,2.372 5.287,5.287 v 19.809 c 0,2.915 -2.372,5.287 -5.287,5.287 h -19.809 c -2.915,0 -5.287,-2.372 -5.287,-5.287 v -19.809 c 0,-2.915 2.372,-5.287 5.287,-5.287 h 19.809 m 0,-1 h -19.809 c -3.472,0 -6.287,2.815 -6.287,6.287 v 19.809 c 0,3.472 2.815,6.287 6.287,6.287 h 19.809 c 3.472,0 6.287,-2.815 6.287,-6.287 v -19.809 c 0,-3.472 -2.815,-6.287 -6.287,-6.287 l 0,0 z"
       id="path144"
       inkscape:connector-curvature="0" /></g><path
     style="fill:#e1dfe2;fill-rule:evenodd"
     d="m 56.756991,75.017 -19.809,0 c -3.472,0 -6.287,-2.815 -6.287,-6.287 l 0,1.795 c 0,3.472 2.815,6.287 6.287,6.287 l 19.809,0 c 5.26011,-0.22453 6.287,-3.99363 6.287,-8.082 0,3.472 -2.815,6.287 -6.287,6.287 z"
     id="path146"
     inkscape:connector-curvature="0"
     sodipodi:nodetypes="sscssccs" /><path
     style="fill:#e1dfe2;fill-rule:evenodd"
     d="m 92.978991,75.017 -19.809,0 c -3.472,0 -6.287,-2.815 -6.287,-6.287 l 0,1.795 c 0,3.472 2.815,6.287 6.287,6.287 l 19.809,0 c 5.14863,0.10991 6.287,-3.99363 6.287,-8.082 0,3.472 -2.814,6.287 -6.287,6.287 z"
     id="path148"
     inkscape:connector-curvature="0"
     sodipodi:nodetypes="sscssccs" /><path
     style="fill:#e1dfe2;fill-rule:evenodd"
     d="m 128.82999,74.915 -19.809,0 c -3.472,0 -6.287,-2.815 -6.287,-6.287 l 0,1.795 c 0,3.472 2.815,6.287 6.287,6.287 l 19.809,0 c 5.03715,-0.11305 6.287,-3.993628 6.287,-8.082 0,3.472 -2.815,6.287 -6.287,6.287 z"
     id="path150"
     inkscape:connector-curvature="0"
     sodipodi:nodetypes="sscssccs" /><path
     style="fill:#e1dfe2;fill-rule:evenodd"
     d="m 165.05199,74.915 -19.809,0 c -3.472,0 -6.287,-2.815 -6.287,-6.287 l 0,1.795 c 0,3.472 2.815,6.287 6.287,6.287 l 19.809,0 c 5.03715,-0.0016 6.287,-3.993628 6.287,-8.082 0,3.472 -2.815,6.287 -6.287,6.287 z"
     id="path152"
     inkscape:connector-curvature="0"
     sodipodi:nodetypes="sscssccs" /><path
     style="fill:#e1dfe2;fill-rule:evenodd"
     d="m 56.756991,112.192 h -19.809 c -3.472,0 -6.287,-2.815 -6.287,-6.287 v 1.795 c 0,3.472 2.815,6.287 6.287,6.287 h 19.809 c 3.472,0 6.287,-2.815 6.287,-6.287 v -1.795 c 0,3.473 -2.815,6.287 -6.287,6.287 z"
     id="path154"
     inkscape:connector-curvature="0" /><path
     style="fill:#e1dfe2;fill-rule:evenodd"
     d="m 92.978991,112.192 -19.809,0 c -3.472,0 -6.287,-2.815 -6.287,-6.287 l 0,1.795 c 0,3.472 2.815,6.287 6.287,6.287 l 19.809,0 c 5.14863,-0.002 6.287,-3.99363 6.287,-8.082 0,3.473 -2.814,6.287 -6.287,6.287 z"
     id="path156"
     inkscape:connector-curvature="0"
     sodipodi:nodetypes="sscssccs" /><path
     style="fill:#e1dfe2;fill-rule:evenodd"
     d="m 128.82999,111.902 -19.809,0 c -3.472,0 -6.287,-2.815 -6.287,-6.287 l 0,1.795 c 0,3.472 2.815,6.287 6.287,6.287 l 19.809,0 c 5.03715,-0.11305 6.287,-3.99363 6.287,-8.082 0,3.472 -2.815,6.287 -6.287,6.287 z"
     id="path158"
     inkscape:connector-curvature="0"
     sodipodi:nodetypes="sscssccs" /><path
     style="fill:#e1dfe2;fill-rule:evenodd"
     d="m 165.05199,111.902 -19.809,0 c -3.472,0 -6.287,-2.815 -6.287,-6.287 l 0,1.795 c 0,3.472 2.815,6.287 6.287,6.287 l 19.809,0 c 5.03715,-0.002 6.287,-3.99363 6.287,-8.082 0,3.472 -2.815,6.287 -6.287,6.287 z"
     id="path160"
     inkscape:connector-curvature="0"
     sodipodi:nodetypes="sscssccs" /><path
     style="fill:#e1dfe2;fill-rule:evenodd"
     d="m 56.756991,148.415 h -19.809 c -3.472,0 -6.287,-2.815 -6.287,-6.287 v 1.795 c 0,3.472 2.815,6.287 6.287,6.287 h 19.809 c 3.472,0 6.287,-2.815 6.287,-6.287 v -1.795 c 0,3.472 -2.815,6.287 -6.287,6.287 z"
     id="path162"
     inkscape:connector-curvature="0" /><path
     style="fill:#e1dfe2;fill-rule:evenodd"
     d="m 92.978991,148.415 h -19.809 c -3.472,0 -6.287,-2.815 -6.287,-6.287 v 1.795 c 0,3.472 2.815,6.287 6.287,6.287 h 19.809 c 3.472,0 6.287,-2.815 6.287,-6.287 v -1.795 c 0,3.472 -2.814,6.287 -6.287,6.287 z"
     id="path164"
     inkscape:connector-curvature="0" /><path
     style="fill:#e1dfe2;fill-rule:evenodd"
     d="m 128.82999,148.415 -19.809,0 c -3.472,0 -6.287,-2.815 -6.287,-6.287 l 0,1.795 c 0,3.472 2.815,6.287 6.287,6.287 l 19.809,0 c 5.26011,0.10991 6.287,-3.99363 6.287,-8.082 0,3.472 -2.815,6.287 -6.287,6.287 z"
     id="path166"
     inkscape:connector-curvature="0"
     sodipodi:nodetypes="sscssccs" /><path
     style="fill:#e1dfe2;fill-rule:evenodd"
     d="m 165.05199,148.415 -19.809,0 c -3.472,0 -6.287,-2.815 -6.287,-6.287 l 0,1.795 c 0,3.472 2.815,6.287 6.287,6.287 l 19.809,0 c 5.37159,0.10991 6.287,-3.99363 6.287,-8.082 0,3.472 -2.815,6.287 -6.287,6.287 z"
     id="path168"
     inkscape:connector-curvature="0"
     sodipodi:nodetypes="sscssccs" /><path
     style="fill:#c02829;fill-rule:evenodd"
     d="m 145.24299,118.785 19.809,0 c 3.472,0 6.287,2.815 6.287,6.287 l 0,-1.795 c 0,-3.472 -2.815,-6.287 -6.287,-6.287 l -19.809,0 c -4.47975,0.11305 -6.287,3.99363 -6.287,8.082 0,-3.472 2.815,-6.287 6.287,-6.287 z"
     id="path170"
     inkscape:connector-curvature="0"
     sodipodi:nodetypes="sscssccs" /><path
     style="fill:#c02829;fill-rule:evenodd"
     d="m 109.02099,118.785 19.809,0 c 3.472,0 6.287,2.815 6.287,6.287 l 0,-1.795 c 0,-3.472 -2.815,-6.287 -6.287,-6.287 l -19.809,0 c -5.14863,0.11305 -6.39848,3.21328 -6.287,8.082 0.66887,-3.24904 2.815,-6.287 6.287,-6.287 z"
     id="path172"
     inkscape:connector-curvature="0"
     sodipodi:nodetypes="sscssccs" /><path
     style="fill:#c02829;fill-rule:evenodd"
     d="m 73.169991,118.887 19.809,0 c 3.472,0 6.287,2.815 6.287,6.287 l 0,-1.795 c 0,-3.472 -2.815,-6.287 -6.287,-6.287 l -19.809,0 c -5.037149,0.002 -6.287,3.99363 -6.287,8.082 0,-3.472 2.815,-6.287 6.287,-6.287 z"
     id="path174"
     inkscape:connector-curvature="0"
     sodipodi:nodetypes="sscssccs" /><path
     style="fill:#c02829;fill-rule:evenodd"
     d="m 36.947991,118.887 19.809,0 c 3.472,0 6.287,2.815 6.287,6.287 l 0,-1.795 c 0,-3.472 -2.815,-6.287 -6.287,-6.287 l -19.809,0 c -4.59123,0.11305 -6.287,3.99363 -6.287,8.082 0,-3.472 2.815,-6.287 6.287,-6.287 z"
     id="path176"
     inkscape:connector-curvature="0"
     sodipodi:nodetypes="sscssccs" /><path
     style="fill:#c02829;fill-rule:evenodd"
     d="m 145.24299,81.609 19.809,0 c 3.472,0 6.287,2.815 6.287,6.287 0.17873,-4.285788 -2.33849,-8.090395 -6.287,-8.082 l -19.809,0 c -5.37159,0.0016 -6.287,3.993628 -6.287,8.082 0,-3.472 2.815,-6.287 6.287,-6.287 z"
     id="path178"
     inkscape:connector-curvature="0"
     sodipodi:nodetypes="ssccccs" /><path
     style="fill:#c02829;fill-rule:evenodd"
     d="m 109.02099,81.609 19.809,0 c 3.472,0 6.287,2.815 6.287,6.287 l 0,-1.795 c 0,-3.472 -2.815,-6.287 -6.287,-6.287 l -19.809,0 c -4.92567,0.002 -6.287,3.99363 -6.287,8.082 0,-3.472 2.815,-6.287 6.287,-6.287 z"
     id="path180"
     inkscape:connector-curvature="0"
     sodipodi:nodetypes="sscssccs" /><path
     style="fill:#c02829;fill-rule:evenodd"
     d="m 73.169991,81.9 19.809,0 c 3.472,0 6.287,2.815 6.287,6.287 l 0,-1.795 c 0,-3.472 -2.815,-6.287 -6.287,-6.287 l -19.809,0 c -4.81419,0.22453 -6.287,3.99363 -6.287,8.082 1.114791,-3.583479 2.815,-6.287 6.287,-6.287 z"
     id="path182"
     inkscape:connector-curvature="0"
     sodipodi:nodetypes="sscssccs" /><path
     style="fill:#c02829;fill-rule:evenodd"
     d="m 36.947991,81.9 19.809,0 c 3.472,0 6.287,2.815 6.287,6.287 l 0,-1.795 c 0,-3.472 -2.815,-6.287 -6.287,-6.287 l -19.809,0 c -4.92567,0.11305 -6.287,3.993628 -6.287,8.082 0,-3.472 2.815,-6.287 6.287,-6.287 z"
     id="path184"
     inkscape:connector-curvature="0"
     sodipodi:nodetypes="sscssccs" /><path
     style="fill:#c02829;fill-rule:evenodd"
     d="m 145.24299,45.387 19.809,0 c 3.472,0 6.287,2.815 6.287,6.287 l 0,-1.795 c 0,-3.472 -2.815,-6.287 -6.287,-6.287 l -19.809,0 c -4.81419,0.002 -6.287,3.99363 -6.287,8.082 0,-3.472 2.815,-6.287 6.287,-6.287 z"
     id="path186"
     inkscape:connector-curvature="0"
     sodipodi:nodetypes="sscssccs" /><path
     style="fill:#c02829;fill-rule:evenodd"
     d="m 109.02099,45.387 19.809,0 c 6.54822,0.694817 6.287,9.093427 6.287,4.492 0,-3.472 -2.815,-6.287 -6.287,-6.287 l -19.809,0 c -5.48307,0.0016 -6.287,3.993628 -6.287,8.082 0,-3.472 2.815,-6.287 6.287,-6.287 z"
     id="path188"
     inkscape:connector-curvature="0"
     sodipodi:nodetypes="sccsccs" /><path
     style="fill:#c02829;fill-rule:evenodd"
     d="m 73.169991,45.387 19.809,0 c 3.472,0 6.287,2.815 6.287,6.287 l 0,-1.795 c 0,-3.472 -2.815,-6.287 -6.287,-6.287 l -19.809,0 c -5.37159,0.11305 -6.287,3.99363 -6.287,8.082 0,-3.472 2.815,-6.287 6.287,-6.287 z"
     id="path190"
     inkscape:connector-curvature="0"
     sodipodi:nodetypes="sscssccs" /><path
     style="fill:#c02829;fill-rule:evenodd"
     d="m 36.947991,45.387 19.809,0 c 3.472,0 6.287,2.815 6.287,6.287 l 0,-1.795 c 0,-3.472 -2.815,-6.287 -6.287,-6.287 l -19.809,0 c -4.81419,0.22453 -6.287,3.99363 -6.287,8.082 0,-3.472 2.815,-6.287 6.287,-6.287 z"
     id="path192"
     inkscape:connector-curvature="0"
     sodipodi:nodetypes="sscssccs" /></svg>