<?xml version="1.0" encoding="UTF-8" standalone="no"?>
<!-- Generator: Adobe Illustrator 18.1.1, SVG Export Plug-In . SVG Version: 6.00 Build 0)  -->

<svg
   xmlns:dc="http://purl.org/dc/elements/1.1/"
   xmlns:cc="http://creativecommons.org/ns#"
   xmlns:rdf="http://www.w3.org/1999/02/22-rdf-syntax-ns#"
   xmlns:svg="http://www.w3.org/2000/svg"
   xmlns="http://www.w3.org/2000/svg"
   xmlns:sodipodi="http://sodipodi.sourceforge.net/DTD/sodipodi-0.dtd"
   xmlns:inkscape="http://www.inkscape.org/namespaces/inkscape"
   version="1.1"
   id="Layer_1"
   x="0px"
   y="0px"
   viewBox="0 0 195.688 195.687"
   xml:space="preserve"
   inkscape:version="0.48.4 r9939"
   width="100%"
   height="100%"
   sodipodi:docname="Camera.svg"><metadata
     id="metadata111"><rdf:RDF><cc:Work
         rdf:about=""><dc:format>image/svg+xml</dc:format><dc:type
           rdf:resource="http://purl.org/dc/dcmitype/StillImage" /></cc:Work></rdf:RDF></metadata><defs
     id="defs109" /><sodipodi:namedview
     pagecolor="#ffffff"
     bordercolor="#666666"
     borderopacity="1"
     objecttolerance="10"
     gridtolerance="10"
     guidetolerance="10"
     inkscape:pageopacity="0"
     inkscape:pageshadow="2"
     inkscape:window-width="1855"
     inkscape:window-height="1056"
     id="namedview107"
     showgrid="false"
     inkscape:zoom="6.342955"
     inkscape:cx="95.823553"
     inkscape:cy="77.789068"
     inkscape:window-x="1985"
     inkscape:window-y="24"
     inkscape:window-maximized="1"
     inkscape:current-layer="Layer_1"
     fit-margin-top="0"
     fit-margin-left="0"
     fit-margin-right="0"
     fit-margin-bottom="0" /><g
     id="g3"
     transform="translate(-199.60801,-323.454)"><linearGradient
       id="SVGID_1_"
       gradientUnits="userSpaceOnUse"
       x1="297.4512"
       y1="324.3956"
       x2="297.4512"
       y2="518.1626"><stop
         offset="0"
         style="stop-color:#FFFFFF;stop-opacity:0.7"
         id="stop6" /><stop
         offset="0.9987"
         style="stop-color:#D8D9D8;stop-opacity:0.7"
         id="stop8" /></linearGradient><path
       style="fill:url(#SVGID_1_);fill-rule:evenodd"
       d="m 209.231,518.642 c -5.031,0 -9.124,-4.093 -9.124,-9.124 v -176.44 c 0,-5.031 4.093,-9.124 9.124,-9.124 h 176.441 c 5.03,0 9.123,4.093 9.123,9.124 v 176.44 c 0,5.031 -4.093,9.124 -9.123,9.124 H 209.231 z"
       id="path10"
       inkscape:connector-curvature="0" /><path
       style="fill:#d8d8d7"
       d="m 385.671,324.454 c 4.755,0 8.624,3.868 8.624,8.623 v 176.441 c 0,4.755 -3.868,8.623 -8.624,8.623 h -176.44 c -4.755,0 -8.623,-3.868 -8.623,-8.623 V 333.077 c 0,-4.755 3.868,-8.623 8.623,-8.623 h 176.44 m 0,-1 h -176.44 c -5.315,0 -9.623,4.309 -9.623,9.623 v 176.441 c 0,5.315 4.309,9.623 9.623,9.623 h 176.441 c 5.315,0 9.624,-4.308 9.624,-9.623 V 333.077 c -10e-4,-5.315 -4.31,-9.623 -9.625,-9.623 l 0,0 z"
       id="path12"
       inkscape:connector-curvature="0" /></g><path
     style="fill:none"
     d="M 41.644991,57.106 H 161.45399 c 3.472,0 6.287,2.815 6.287,6.287 v 79.809 c 0,3.472 -2.815,6.287 -6.287,6.287 H 41.644991 c -3.472,0 -6.287,-2.815 -6.287,-6.287 V 63.393 c 0,-3.472 2.815,-6.287 6.287,-6.287 z"
     id="path14"
     inkscape:connector-curvature="0" /><g
     id="g16"
     transform="translate(-199.60801,-323.454)"><g
       id="g18"><linearGradient
         id="SVGID_2_"
         gradientUnits="userSpaceOnUse"
         x1="301.3562"
         y1="382.27881"
         x2="301.3562"
         y2="473.1604"><stop
           offset="0"
           style="stop-color:#756A80"
           id="stop21" /><stop
           offset="1"
           style="stop-color:#60576B"
           id="stop23" /></linearGradient><path
         style="fill:url(#SVGID_2_);fill-rule:evenodd"
         d="m 235.238,406.51 v -19.725 c 0,-3.178 2.586,-5.764 5.765,-5.764 H 361.71 c 3.179,0 5.765,2.586 5.765,5.764 V 406.51 H 235.238 z"
         id="path25"
         inkscape:connector-curvature="0" /><path
         style="fill:#5c5264"
         d="m 361.71,381.271 c 3.041,0 5.515,2.474 5.515,5.515 v 19.475 H 235.488 v -19.475 c 0,-3.041 2.474,-5.515 5.515,-5.515 H 361.71 m 0,-0.5 H 241.002 c -3.322,0 -6.015,2.693 -6.015,6.015 v 19.975 h 132.737 v -19.975 c 0,-3.322 -2.693,-6.015 -6.014,-6.015 l 0,0 z"
         id="path27"
         inkscape:connector-curvature="0" /></g><g
       id="g29"><linearGradient
         id="SVGID_3_"
         gradientUnits="userSpaceOnUse"
         x1="301.3562"
         y1="382.50409"
         x2="301.3562"
         y2="474.47351"><stop
           offset="0"
           style="stop-color:#756A80"
           id="stop32" /><stop
           offset="1"
           style="stop-color:#60576B"
           id="stop34" /></linearGradient><path
         style="fill:url(#SVGID_3_);fill-rule:evenodd"
         d="m 241.002,475.249 c -3.179,0 -5.765,-2.586 -5.765,-5.765 v -60.45 h 132.237 v 60.45 c 0,3.179 -2.586,5.765 -5.765,5.765 H 241.002 z"
         id="path36"
         inkscape:connector-curvature="0" /><path
         style="fill:#5c5264"
         d="m 367.224,409.284 v 60.2 c 0,3.041 -2.474,5.515 -5.515,5.515 H 241.002 c -3.041,0 -5.515,-2.474 -5.515,-5.515 v -60.2 h 131.737 m 0.5,-0.5 H 234.988 v 60.7 c 0,3.322 2.693,6.015 6.015,6.015 H 361.71 c 3.322,0 6.015,-2.693 6.015,-6.015 v -60.7 l -0.001,0 z"
         id="path38"
         inkscape:connector-curvature="0" /></g></g><g
     id="g40"
     transform="translate(-199.60801,-323.454)"><linearGradient
       id="SVGID_4_"
       gradientUnits="userSpaceOnUse"
       x1="300.84109"
       y1="399.01071"
       x2="300.84109"
       y2="458.10779"><stop
         offset="0"
         style="stop-color:#756A80"
         id="stop43" /><stop
         offset="1"
         style="stop-color:#60576B"
         id="stop45" /></linearGradient><path
       style="fill:url(#SVGID_4_);fill-rule:evenodd"
       d="m 300.841,461.131 c -17.485,0 -31.71,-14.226 -31.71,-31.711 0,-17.485 14.225,-31.71 31.71,-31.71 17.485,0 31.711,14.225 31.711,31.71 0,17.485 -14.226,31.711 -31.711,31.711 z"
       id="path47"
       inkscape:connector-curvature="0" /><path
       style="fill:#5c5264"
       d="m 300.841,398.21 c 17.237,0 31.21,13.973 31.21,31.21 0,17.237 -13.973,31.211 -31.21,31.211 -17.237,0 -31.211,-13.973 -31.211,-31.211 0,-17.237 13.974,-31.21 31.211,-31.21 m 0,-1 c -17.761,0 -32.211,14.45 -32.211,32.21 0,17.761 14.45,32.211 32.211,32.211 17.761,0 32.21,-14.45 32.21,-32.211 0,-17.761 -14.449,-32.21 -32.21,-32.21 l 0,0 z"
       id="path49"
       inkscape:connector-curvature="0" /></g><g
     id="g51"
     transform="translate(-199.60801,-323.454)"><linearGradient
       id="SVGID_5_"
       gradientUnits="userSpaceOnUse"
       x1="300.84109"
       y1="399.9697"
       x2="300.84109"
       y2="457.20319"><stop
         offset="0"
         style="stop-color:#E7E7E7"
         id="stop54" /><stop
         offset="1"
         style="stop-color:#E2E2E2"
         id="stop56" /></linearGradient><path
       style="fill:url(#SVGID_5_);fill-rule:evenodd"
       d="m 300.841,460.131 c -16.934,0 -30.71,-13.777 -30.71,-30.711 0,-16.934 13.777,-30.71 30.71,-30.71 16.933,0 30.711,13.777 30.711,30.71 0,16.933 -13.778,30.711 -30.711,30.711 z m 0.002,-48.728 c -9.935,0 -18.017,8.083 -18.017,18.017 0,9.934 8.083,18.017 18.017,18.017 9.934,0 18.017,-8.082 18.017,-18.017 0,-9.935 -8.083,-18.017 -18.017,-18.017 z"
       id="path58"
       inkscape:connector-curvature="0" /><path
       style="fill:#f2f2f2"
       d="m 300.841,399.21 c 16.658,0 30.21,13.552 30.21,30.21 0,16.658 -13.552,30.211 -30.21,30.211 -16.658,0 -30.211,-13.552 -30.211,-30.211 0,-16.658 13.553,-30.21 30.211,-30.21 m 0.002,48.726 c 10.21,0 18.517,-8.307 18.517,-18.517 0,-10.21 -8.307,-18.517 -18.517,-18.517 -10.21,0 -18.517,8.307 -18.517,18.517 0,10.21 8.306,18.517 18.517,18.517 m -0.002,-49.726 c -17.237,0 -31.211,13.973 -31.211,31.21 0,17.237 13.973,31.211 31.211,31.211 17.237,0 31.21,-13.973 31.21,-31.211 0,-17.237 -13.973,-31.21 -31.21,-31.21 l 0,0 z m 0.002,48.726 c -9.674,0 -17.517,-7.842 -17.517,-17.517 0,-9.674 7.843,-17.517 17.517,-17.517 9.674,0 17.517,7.843 17.517,17.517 -0.001,9.675 -7.843,17.517 -17.517,17.517 l 0,0 z"
       id="path60"
       inkscape:connector-curvature="0" /></g><path
     style="fill:#5c5264;fill-rule:evenodd"
     d="m 162.10099,57.106 -120.727999,0 c -4.82917,1.06976 -6.015,3.82683 -6.015,7.746 0,-3.322 2.693,-6.015 6.015,-6.015 l 120.728999,0 c 3.322,0 6.015,2.693 6.015,6.015 l 0,-1.731 c -10e-4,-3.322 -2.694,-6.015 -6.016,-6.015 z"
     id="path62"
     inkscape:connector-curvature="0"
     sodipodi:nodetypes="sccssccs" /><path
     style="fill:#e1dfe2;fill-rule:evenodd"
     d="m 41.372991,153.312 120.728999,0 c 5.14448,-0.12383 6.015,-3.82683 6.015,-7.746 0,3.322 -2.693,6.015 -6.015,6.015 l -120.728999,0 c -3.322,0 -6.015,-2.693 -6.015,-6.015 l 0,1.731 c 0,3.322 2.693,6.015 6.015,6.015 z"
     id="path64"
     inkscape:connector-curvature="0"
     sodipodi:nodetypes="sccsscss" /><linearGradient
     id="SVGID_6_"
     gradientUnits="userSpaceOnUse"
     x1="300.8425"
     y1="413.8396"
     x2="300.8425"
     y2="445.65921"
     gradientTransform="translate(-199.60801,-323.454)"><stop
       offset="0"
       style="stop-color:#595A5B"
       id="stop67" /><stop
       offset="1"
       style="stop-color:#4C4C4C"
       id="stop69" /></linearGradient><path
     style="fill:url(#SVGID_6_);fill-rule:evenodd"
     d="m 101.23499,88.449 c 9.674,0 17.517,7.842 17.517,17.517 0,9.674 -7.842,17.517 -17.517,17.517 -9.674999,0 -17.516999,-7.842 -17.516999,-17.517 0,-9.675 7.842,-17.517 17.516999,-17.517 z"
     id="path71"
     inkscape:connector-curvature="0" /><linearGradient
     id="SVGID_7_"
     gradientUnits="userSpaceOnUse"
     x1="300.8425"
     y1="413.8396"
     x2="300.8425"
     y2="445.65921"
     gradientTransform="translate(-199.60801,-323.454)"><stop
       offset="0"
       style="stop-color:#595A5B"
       id="stop74" /><stop
       offset="1"
       style="stop-color:#4C4C4C"
       id="stop76" /></linearGradient><path
     style="fill:url(#SVGID_7_);fill-rule:evenodd"
     d="m 101.23499,88.449 c 9.674,0 17.517,7.842 17.517,17.517 0,9.674 -7.842,17.517 -17.517,17.517 -9.674999,0 -17.516999,-7.842 -17.516999,-17.517 0,-9.675 7.842,-17.517 17.516999,-17.517 z"
     id="path78"
     inkscape:connector-curvature="0" /><g
     id="g80"
     transform="translate(-199.60801,-323.454)"><g
       id="g82"><path
         style="fill:#5c5264;fill-rule:evenodd"
         d="m 331.184,388.309 h 25.81 c 1.657,0 3,1.343 3,3 v 10.016 c 0,1.657 -1.343,3 -3,3 h -25.81 c -1.657,0 -3,-1.343 -3,-3 v -10.016 c 0,-1.657 1.343,-3 3,-3 z"
         id="path84"
         inkscape:connector-curvature="0" /></g></g><g
     id="g86"
     transform="translate(-199.60801,-323.454)"><g
       id="g88"><linearGradient
         id="SVGID_8_"
         gradientUnits="userSpaceOnUse"
         x1="344.0889"
         y1="387.94641"
         x2="344.0889"
         y2="401.42691"><stop
           offset="0"
           style="stop-color:#E7E7E7"
           id="stop91" /><stop
           offset="1"
           style="stop-color:#E2E2E2"
           id="stop93" /></linearGradient><path
         style="fill:url(#SVGID_8_);fill-rule:evenodd"
         d="m 331.184,402.124 c -1.379,0 -2.5,-1.122 -2.5,-2.5 v -10.017 c 0,-1.378 1.121,-2.5 2.5,-2.5 h 25.811 c 1.379,0 2.5,1.122 2.5,2.5 v 10.017 c 0,1.378 -1.121,2.5 -2.5,2.5 h -25.811 z"
         id="path95"
         inkscape:connector-curvature="0" /></g><g
       id="g97"><path
         style="fill:#f2f2f2"
         d="m 356.994,387.608 c 1.103,0 2,0.897 2,2 v 10.016 c 0,1.103 -0.897,2 -2,2 h -25.81 c -1.103,0 -2,-0.897 -2,-2 v -10.016 c 0,-1.103 0.897,-2 2,-2 h 25.81 m 0,-1 h -25.81 c -1.657,0 -3,1.343 -3,3 v 10.016 c 0,1.657 1.343,3 3,3 h 25.81 c 1.657,0 3,-1.343 3,-3 v -10.016 c 0,-1.657 -1.343,-3 -3,-3 l 0,0 z"
         id="path99"
         inkscape:connector-curvature="0" /></g></g><path
     style="fill:#e0e1e0;fill-rule:evenodd"
     d="m 94.535991,95.709 c 1.819,0 3.293,1.474 3.293,3.293 0,1.819 -1.474,3.293 -3.293,3.293 -1.819,0 -3.293,-1.475 -3.293,-3.293 -0.001,-1.819 1.474,-3.293 3.293,-3.293 z"
     id="path101"
     inkscape:connector-curvature="0" /><g
     id="g103"
     transform="translate(-199.60801,-323.454)"><path
       style="fill:#353535;fill-rule:evenodd"
       d="m 300.843,412.903 c 9.505,0 17.224,7.576 17.491,17.017 0.005,-0.168 0.025,-0.331 0.025,-0.5 0,-9.674 -7.842,-17.517 -17.517,-17.517 -9.675,0 -17.517,7.843 -17.517,17.517 0,0.169 0.021,0.332 0.025,0.5 0.268,-9.441 7.987,-17.017 17.493,-17.017 z"
       id="path105"
       inkscape:connector-curvature="0" /></g></svg>